<svg xmlns="http://www.w3.org/2000/svg" fill="none" viewBox="0 0 1280 600">
  <g clip-path="url(#a)">
    <path fill="#0a0a0a" d="M-112.2 167.6c7.4 7.4 16.7 8 23.2 1.6 6.5-6.5 5.8-15.8-1.6-23.2-7.4-7.4-16.8-8-23.2-1.6-6.5 6.4-5.9 15.8 1.6 23.2Zm69.9-19.1L-93 97.6-75.4 80-32 95l-29.2-29.2L-45 49.4l51 50.8-18.6 18.6-40.7-14 27.4 27.3-16.4 16.4ZM26 80.1l-37-37-14.3 14.4-13.8-13.8 45-45 13.7 13.8L5.4 26.7l37 37-16.3 16.4ZM42.6 33 31.2 21.3 56.4-3.8 68 7.6 42.6 33Zm47.3-16.7L39-34.5l40.8-40.8 12.7 12.7-24.4 24.5 7.4 7.4L97.8-53 108-42.8 85.7-20.5l7.8 7.8L118-37.2l12.7 12.7-40.8 40.8Zm47.8-47.8L87-82.4l17.7-17.7L148-85l-29.2-29.1 16.3-16.4L186-79.7l-18.6 18.5-40.7-14L154-48l-16.4 16.4Z"/>
    <path fill="#2a2524" d="M-44.7 276.8-87 234.4l14.8-14.8 36.1 12.5-24.3-24.3 13.6-13.6 42.4 42.4-15.4 15.4-34-11.7 22.8 22.8-13.6 13.7ZM35 197l-16.4 16.5-42.4-42.4 16.5-16.4c14.9-15 31.6-16.4 45.2-2.9 13.5 13.6 12 30.3-2.9 45.3Zm-14.3-8.7 2.4-2.3c7.2-7.2 7.5-14.2 1.1-20.5-6.3-6.4-13.3-6-20.5 1.1L1.4 169l19.3 19.3ZM57 163c-4.4-4.5-4.2-10.4.3-14.8 4.6-4.7 10.4-4.8 14.9-.4 4 4.1 4 10-.7 14.6-4.5 4.5-10.4 4.6-14.5.5Zm13.6-86.3L84.3 63 111 89.8c10.5 10.6 11 22.6 1.2 32.3a36 36 0 0 1-17.5 10l-5.3-15.4c2.4-.2 5.3-1.5 7.4-3.6 3.7-3.7 2.9-7.4-2.7-13L70.6 76.7Zm53.7-28.3 10.2 20.2L145.3 58 125 47.7l-.7.7Zm20 39.4L130 102l-26.7-58.1 17.1-17 58.1 26.6-14.2 14.1-7-3.5-16.7 16.7 3.5 7ZM183 49 140.7 6.7l18-18 21.6 10.2.9-.9-10.3-21.6 18-18L231.4.7l-13.6 13.6-25-25 8.8 19.1-10.8 10.8-19.2-9 25.2 25.2L183 49Zm55.7-55.6L196.3-49l34-34 10.6 10.6L220.5-52l6.2 6.2 18.6-18.6 8.5 8.5-18.6 18.6 6.5 6.5L262-51.2l10.6 10.6-34 34ZM286.6-109l-11.2 11.2c-2.5-5.3-7.6-5.3-12.2-.7-3.4 3.3-4.2 7-1.8 9.4 2.3 2.4 5.9 1.7 14.4-3.4 14.3-8.8 22.2-9.2 28.5-2.9 8.1 8.1 6 19.5-5.2 30.7A47.8 47.8 0 0 1 270.6-50l-2.8-15a33 33 0 0 0 20-9.6c3.3-3.2 4.6-6.1 2.9-7.8-1.4-1.4-4-.7-10.5 3-15.5 9.1-24.6 9.6-31.4 2.8-8.3-8.3-6.3-20.9 5-32.1 12.8-12.8 27-13 32.8-.3Z"/>
    <path fill="#0a0a0a" d="M-98.8 431c-18-18-17.8-42.2.4-60.4 18.2-18.2 42.4-18.4 60.4-.4s17.8 42.2-.4 60.4c-18.2 18.2-42.4 18.3-60.4.4Zm18.3-18.3c8.3 8.3 18.8 9 26 1.8 7.2-7.3 6.5-17.7-1.8-26s-18.8-9-26-1.8c-7.2 7.2-6.5 17.7 1.8 26Zm78.3-21.4-56.9-57 19.8-19.7 48.5 16.8-32.6-32.7 18.3-18.3 56.8 57L31 358l-45.6-15.6L16.1 373l-18.3 18.3Zm85-85-57-56.9 45.7-45.7L85.8 218l-27.4 27.3 8.3 8.3 25-25 12.8 13-25 25L101 288l-18.2 18.3ZM112.2 194l11.4 11.3 7.1-7.1c4.8-4.8 5.5-9.7 1.7-13.4-3.7-3.8-7.7-3.4-12.5 1.4l-7.7 7.8Zm41.5 41.4-18.3 18.3-57-56.9 29-29c15.7-15.6 28.4-17.4 40.4-5.4 8.1 8.2 9.4 17 3.6 27l.9.9c11.7-6.3 24.4-3.3 37.3 9.2l-19 19c-11.2-10.5-21.4-12.6-30.3-3.7l-3.6 3.6 17 17Zm11.9-68.8c-18-18-17.8-42.2.4-60.4 18.2-18.2 42.4-18.4 60.4-.4s17.8 42.2-.4 60.4c-18.2 18.2-42.5 18.3-60.4.4Zm18.3-18.3c8.3 8.3 18.7 9 26 1.8 7.2-7.2 6.5-17.7-1.8-26s-18.8-9-26-1.8c-7.2 7.2-6.5 17.7 1.8 26Zm78.3-21.4-57-56.9 20-19.8L273.5 67 241 34.3l18.2-18.2 57 56.8-20.8 20.7L249.8 78l30.6 30.6-18.2 18.3Zm76.4-76.5L297.2 9l-16 16-15.5-15.4L316-40.7l15.4 15.5-16 15.9L357 32l-18.3 18.3Zm18.6-52.8-12.9-12.8 28.3-28.3 12.8 12.8-28.2 28.3ZM410-21l-57-56.7 45.7-45.7 14.2 14.2-27.4 27.4 8.3 8.3 25-25L430.2-87l-25 25 8.8 8.7 27.3-27.4 14.3 14.2L410-21Z"/>
    <path fill="#2a2524" d="m-64 552-30.6-30.7 24.6-24.6 7.7 7.7-14.8 14.7 4.5 4.5 13.4-13.4 6.2 6.1-13.4 13.5 4.6 4.7 14.8-14.8 7.7 7.7L-64 552Zm34.8-74.1-8.1 8c-1.8-3.8-5.6-3.8-8.9-.5-2.4 2.4-3 5.2-1.3 6.9 1.7 1.7 4.3 1.2 10.5-2.5 10.3-6.3 16-6.7 20.6-2 5.9 5.8 4.3 14-3.8 22.1A34.6 34.6 0 0 1-41 520.6l-2-10.9c3.8.1 10.5-2.8 14.6-7 2.3-2.3 3.2-4.4 2-5.6-1-1-2.9-.5-7.5 2.2-11.3 6.6-17.9 7-22.8 2-6-6-4.5-15.1 3.6-23.2 9.3-9.3 19.6-9.5 23.8-.2Zm8.5.1c-9.7-9.6-9.6-22.7.2-32.5 9.8-9.8 22.9-9.9 32.6-.2 9.6 9.7 9.6 22.7-.3 32.6-9.8 9.8-22.8 9.9-32.5.2Zm9.9-9.8c4.4 4.5 10 4.9 14 1 3.9-4 3.5-9.6-1-14-4.5-4.5-10.1-4.9-14-1-4 3.9-3.5 9.6 1 14Zm42.2-11.5L.7 426l10.7-10.7 26.1 9L20 406.9l9.9-9.9 30.7 30.7-11.2 11.2-24.6-8.5 16.5 16.5-9.8 9.9Zm45.8-45.9-30.7-30.6 24.6-24.6 7.7 7.6L64 378l4.5 4.5L82 369l7 7-13.5 13.4L87 401l-9.8 9.8ZM93 350.3l6.2 6.1 3.9-3.8c2.5-2.6 2.9-5.3.9-7.3s-4.2-1.8-6.8.8l-4.1 4.2Zm22.4 22.3-9.8 9.9-30.7-30.7 15.6-15.6c8.4-8.4 15.3-9.4 21.8-3 4.3 4.5 5 9.2 1.9 14.6l.5.5c6.3-3.4 13.2-1.8 20 5l-10.2 10.2c-6-5.6-11.5-6.8-16.3-2l-2 2 9.2 9.1Zm6.4-37.1c-9.6-9.7-9.5-22.7.3-32.5s22.8-10 32.5-.2c9.7 9.6 9.6 22.7-.2 32.5-9.8 9.8-22.9 9.9-32.6.2Zm10-9.8c4.4 4.4 10 4.8 14 1 3.8-4 3.4-9.6-1-14-4.5-4.6-10.2-5-14-1-4 3.8-3.6 9.5 1 14Zm42.2-11.6-30.7-30.7 10.6-10.6 26.2 9-17.6-17.6 9.8-9.8L203 285l-11.2 11.2-24.5-8.5 16.5 16.6-9.9 9.8Zm41.2-41.2-22.4-22.4-8.7 8.7-8.3-8.3 27.1-27.1 8.4 8.3-8.6 8.6L225 263l-9.8 9.9Zm9.9-28.5-6.9-7 15.3-15.2 6.9 7-15.3 15.2Zm28.5-10L223 203.7l24.6-24.6 7.6 7.7-14.7 14.8 4.5 4.4 13.4-13.4 6.2 6.2-13.5 13.4 4.7 4.7 14.8-14.8 7.6 7.7-24.6 24.6Zm28.9-28.9L251.8 175l10.7-10.7 26.2 9-17.6-17.6 9.8-9.8 30.7 30.6-11.2 11.2-24.6-8.4 16.6 16.5-9.9 9.8Zm46.3-46.3L317 171.1l-30.6-30.7 11.9-11.8c10.8-10.9 22.9-12 32.7-2.1 9.8 9.8 8.7 21.9-2 32.7Zm-10.3-6.3 1.7-1.7c5.2-5.2 5.4-10.2.8-14.8-4.6-4.6-9.6-4.4-14.8.8l-1.7 1.7 14 14Zm43.1-26.5L331 95.8 355.6 71l7.6 7.7-14.7 14.8 4.4 4.4 13.5-13.4 6.2 6.2-13.5 13.4 4.7 4.7L378.6 94l7.6 7.7-24.6 24.6Zm28.9-28.8-30.7-30.7 10.7-10.7 26.2 9L379 47.8l9.8-10 30.7 30.8-11.2 11.1-24.6-8.4 16.5 16.5-9.8 9.9Zm45.2-80.9-8.8 8.8c-1.7-3.4-6.5-4.6-10.6-.6-3.9 4-3.4 9.2 1.4 14 5 5 11.2 5 15.9.2 3-3 3.8-6.4 2.9-9.2l-8.3 8.3-4.1-4 15.9-16 14.9 15-7.1 7-4.5-6.2-.4.4c2.3 5.5 1 11.1-4 16-8.8 8.8-21.2 8.2-30.8-1.4-9.9-9.9-9.8-22.3.4-32.4 10-10 22-9 27.2 0Zm23.5 12.2L428.5-1.8l9.8-9.8L469 19l-9.8 9.9Zm15.1-15.2-30.7-30.6 10.7-10.7 26.2 9-17.6-17.6 9.8-9.8 30.7 30.6-11.2 11.2-24.6-8.4 16.6 16.5-9.9 9.8Zm34.4-34.4-30.6-30.7L502.7-76l7.7 7.7-14.8 14.7 4.5 4.5 13.4-13.4 6.2 6.1-13.5 13.5 4.7 4.7L525.7-53l7.7 7.7-24.7 24.6Zm28.9-28.9L507-80.2l24.6-24.7 7.6 7.7-14.7 14.8 4.4 4.4 13.5-13.4 6.2 6.2L535-71.8l4.7 4.7 14.8-14.8 7.6 7.7-24.6 24.6Zm16.4-61.1 6.1 6.2 3.9-3.9c2.6-2.6 3-5.2 1-7.2s-4.2-1.8-6.8.8l-4.2 4.1Zm22.4 22.4-9.9 9.8-30.7-30.6 15.6-15.6c8.5-8.5 15.3-9.4 21.8-3 4.4 4.4 5 9.2 2 14.6l.4.5c6.3-3.4 13.2-1.8 20.1 5l-10.2 10.2c-6-5.7-11.6-6.8-16.3-2l-2 2 9.2 9Z"/>
    <path fill="#0a0a0a" d="m-97.6 664 15.1 30.2 16.1-16-30.1-15.2-1.1 1Zm87.6 1-63.2-63.3 26.9-26.9 32.2 15.3 1.3-1.3-15.3-32.2 27-27L62 593l-20.3 20.3-37.4-37.4 13.2 28.6-16 16-28.8-13.3 37.6 37.5L-10 665Zm83-83L9.7 518.8 60.5 468l15.8 15.8-30.4 30.4 9.2 9.3 27.7-27.8 12.7 12.8-27.7 27.7 9.7 9.6 30.4-30.4 15.8 15.8L73 582Zm71.5-152.8-16.7 16.7c-3.7-7.9-11.4-8-18.3-1.1-5 5-6.2 10.5-2.7 14 3.6 3.6 8.9 2.6 21.6-5 21.3-13 33-13.8 42.5-4.3 12.1 12 8.9 29-7.8 45.8-13.8 13.8-31.2 21.5-42.5 21.9l-4.2-22.4c7.9.3 21.5-5.8 30-14.3 4.9-4.8 6.7-9.2 4.1-11.7-2-2-5.8-1-15.5 4.5-23.2 13.7-36.7 14.4-46.9 4.3-12.4-12.5-9.4-31.3 7.4-48 19.1-19.1 40.4-19.5 49-.4Zm17.5.4c-19.9-20-19.7-46.9.5-67 20.3-20.3 47.2-20.5 67.1-.5 20 20 19.8 46.8-.4 67-20.2 20.3-47.1 20.5-67.1.5Zm20.4-20.3c9.2 9.2 20.9 10 29 2 8-8 7.1-19.7-2-29-9.3-9.1-21-10-29-1.9-8 8-7.2 19.7 2 28.9Zm87-23.8-63.2-63.2 22-22 54 18.6-36.3-36.3 20.3-20.3 63.2 63.2-23 23-50.7-17.4 34 34-20.3 20.4Zm94.5-94.5-63.2-63.2 50.7-50.7 15.8 15.8-30.4 30.4 9.2 9.2 27.7-27.7 14.4 14.4-27.8 27.7 23.9 23.8-20.3 20.3Zm32.7-124.8 12.6 12.7 8-8c5.3-5.3 6-10.7 1.9-14.9-4.2-4.1-8.6-3.7-14 1.6l-8.5 8.6Zm46 46-20.3 20.4-63.2-63.2 32.2-32.2c17.4-17.4 31.5-19.4 44.8-6 9 9 10.5 18.8 4 30l1 1c13-7 27.2-3.8 41.5 10.2l-21.2 21c-12.3-11.6-23.7-14-33.6-4l-4 4 18.9 18.9Zm13.4-76.4c-20-20-19.9-46.9.4-67.1 20.2-20.2 47.1-20.4 67-.5 20 20 19.8 47-.4 67.1-20.2 20.3-47.1 20.4-67 .5Zm20.2-20.3c9.2 9.2 20.9 10 29 2 8-8 7.2-19.7-2-29-9.3-9.1-21-10-29-2-8 8.1-7.2 19.8 2 29Zm87-23.8L500 28.5l22-22L576 25l-36.3-36.3L560-31.5l63.2 63.2-23 23-50.7-17.4 34 34-20.3 20.4Zm85-85-46-46-17.9 17.8-17.2-17.1 56-56 17.1 17.2-17.7 17.7 46 46-20.3 20.4ZM668.8-52l-14.2-14.3L686-97.7l14.2 14.3L668.8-52Z"/>
    <path fill="#2a2524" d="m-18.8 731.5-7 7c-1.6-3.3-4.8-3.3-7.7-.4-2 2-2.6 4.4-1.1 5.9 1.4 1.5 3.7 1 9-2.2 9-5.4 14-5.7 17.9-1.8 5 5.1 3.7 12.3-3.3 19.3a30 30 0 0 1-17.9 9.2l-1.7-9.4c3.3.1 9-2.4 12.6-6 2-2 2.8-3.9 1.7-5-.8-.8-2.4-.4-6.5 2-9.8 5.7-15.4 6-19.7 1.7-5.2-5.2-4-13 3-20.1 8.1-8 17-8.2 20.7-.2Zm7.4.2c-8.4-8.4-8.3-19.7.2-28.2s19.8-8.6 28.2-.2c8.4 8.4 8.3 19.7-.2 28.2s-19.8 8.6-28.2.2Zm8.5-8.5C1 727 6 727.4 9.3 724c3.3-3.4 3-8.3-.9-12.2-3.8-3.8-8.7-4.2-12.1-.8-3.4 3.4-3 8.3.8 12.2Zm36.6-10L7 686.6l9.3-9.3 22.6 7.9-15.2-15.3 8.5-8.5L59 688l-9.7 9.6-21.3-7.3 14.3 14.3-8.5 8.6Zm39.7-39.7-26.6-26.6 21.3-21.3 6.7 6.6L62 645l3.9 3.9 11.6-11.7 6 6L72 655l10 10-8.5 8.6ZM87.1 621l5.3 5.3 3.4-3.3c2.2-2.3 2.5-4.5.8-6.3-1.8-1.7-3.6-1.5-5.9.7l-3.6 3.6Zm19.4 19.4-8.6 8.5-26.5-26.6 13.5-13.5c7.3-7.3 13.2-8.1 18.9-2.5 3.7 3.8 4.4 7.9 1.6 12.6l.4.4c5.5-3 11.5-1.6 17.5 4.3l-9 8.9c-5.1-5-9.9-6-14-1.8l-1.7 1.7 7.9 8Zm5.5-32.2c-8.3-8.4-8.3-19.7.2-28.2s19.9-8.6 28.2-.2c8.4 8.4 8.4 19.7-.1 28.2s-19.9 8.6-28.2.2Zm8.6-8.5c3.9 3.9 8.8 4.2 12.1.8 3.4-3.4 3-8.3-.8-12.1-3.9-3.9-8.8-4.2-12.1-.9-3.4 3.4-3 8.3.8 12.2Zm36.6-10L130.6 563l9.3-9.2 22.6 7.8-15.2-15.2 8.5-8.6 26.6 26.6-9.7 9.7-21.3-7.4 14.3 14.3-8.5 8.6Zm35.7-35.7-19.4-19.4-7.5 7.5-7.2-7.2 23.5-23.5 7.2 7.2-7.4 7.5 19.3 19.3-8.5 8.6Zm8.6-24.7-6-6 13.2-13.2 6 6-13.2 13.2Zm24.7-8.7-26.6-26.5 21.4-21.3 6.6 6.6-12.8 12.8 3.9 3.9 11.6-11.7 5.4 5.4-11.7 11.6 4.1 4 12.8-12.7 6.6 6.6-21.3 21.3Zm25-25-26.5-26.5 9.2-9.3 22.7 7.9-15.3-15.3 8.5-8.5 26.6 26.5-9.7 9.7-21.3-7.3 14.4 14.3-8.6 8.5Zm40.1-40.1L281 465.8l-26.5-26.6 10.3-10.3c9.3-9.3 19.8-10.2 28.3-1.7s7.6 19-1.8 28.3Zm-9-5.5 1.6-1.4c4.5-4.5 4.7-9 .7-12.9-4-4-8.4-3.8-12.9.7l-1.5 1.5 12.2 12.1Zm37.4-22.9-26.5-26.6 21.3-21.3 6.6 6.7-12.7 12.7 3.8 4 11.7-11.7 5.3 5.3-11.6 11.7 4 4 12.8-12.8 6.7 6.7-21.4 21.3Zm25-25.1-26.5-26.5 9.2-9.2 22.7 7.8-15.3-15.2 8.6-8.6 26.5 26.6-9.6 9.7-21.3-7.4 14.3 14.4-8.6 8.5Zm39.3-70-7.7 7.7c-1.5-3-5.7-4-9.2-.5-3.4 3.4-3 7.9 1.2 12 4.4 4.4 9.7 4.4 13.8.3 2.5-2.6 3.3-5.5 2.5-8l-7.2 7.2-3.6-3.6 13.8-13.7 13 13-6.2 6-3.9-5.3-.3.3c2 4.7.8 9.6-3.5 13.9-7.6 7.6-18.4 7-26.7-1.3-8.6-8.5-8.5-19.2.3-28 8.7-8.7 19.2-7.9 23.6 0Zm20.2 10.6-26.5-26.5 8.5-8.6 26.6 26.6-8.6 8.5Zm13.1-13.1-26.5-26.6 9.2-9.2 22.7 7.8-15.3-15.2 8.6-8.6 26.5 26.6-9.6 9.7-21.3-7.3 14.3 14.3-8.6 8.5Zm29.9-29.8L420.6 273l21.3-21.3 6.7 6.6-12.8 12.8 3.9 3.9 11.6-11.7 5.4 5.4-11.7 11.6 4 4 12.9-12.7 6.6 6.6-21.3 21.4Zm25-25L445.6 248l21.4-21.3 6.6 6.6-12.8 12.8 3.9 3.9 11.6-11.7 5.4 5.4-11.7 11.6 4 4 12.9-12.7 6.6 6.6-21.3 21.4Zm14.2-53 5.3 5.4 3.3-3.4c2.3-2.2 2.6-4.5.8-6.2-1.7-1.8-3.6-1.6-5.8.6l-3.6 3.6Zm19.3 19.4-8.5 8.5-26.6-26.5 13.5-13.5c7.4-7.4 13.3-8.2 19-2.6 3.7 3.8 4.3 8 1.6 12.6l.4.4c5.5-3 11.4-1.5 17.4 4.3l-8.9 9c-5.2-5-10-6-14-1.8l-1.8 1.7 8 7.9Zm11.6-64.7 8.5-8.5 16.8 16.7c6.6 6.6 6.9 14.2.8 20.3a22.6 22.6 0 0 1-11 6.3l-3.4-9.7c1.6-.1 3.4-1 4.7-2.2 2.3-2.4 1.8-4.7-1.7-8.2l-14.7-14.7Zm25.3 1.3c-8.4-8.4-8.4-19.7.1-28.2s19.9-8.5 28.2-.2c8.4 8.4 8.4 19.7-.1 28.2s-19.9 8.6-28.2.2Zm8.5-8.5c3.9 3.9 8.8 4.2 12.1.8 3.4-3.4 3-8.3-.8-12.1-3.9-3.9-8.8-4.2-12.1-.9-3.4 3.4-3 8.3.8 12.2Zm53.4-26.8-9.7-9.7-8.2 8.3 9.6 9.6-8.5 8.6-26.6-26.6 8.5-8.5 9.8 9.8 8.3-8.3-9.8-9.8 8.5-8.5 26.6 26.5-8.5 8.6Zm13.1-13.2-26.5-26.6 9.2-9.2 22.7 7.8L607.7 86l8.6-8.6 26.5 26.6-9.6 9.7-21.3-7.3 14.3 14.3-8.6 8.5Zm50-50-10.3 10.3L630.8 63 641 52.7c9.3-9.4 19.8-10.3 28.3-1.8s7.6 19-1.8 28.3Zm-9-5.4 1.5-1.5c4.6-4.5 4.7-8.9.8-12.9-4-4-8.4-3.8-13 .7l-1.4 1.5 12.2 12.2Zm22.8-16c-2.8-2.7-2.6-6.4.2-9.2 2.9-3 6.5-3 9.3-.3 2.6 2.6 2.5 6.3-.4 9.2-2.8 2.8-6.5 3-9 .3Zm8.6-54 8.5-8.6L715.3 12c6.6 6.6 6.8 14.1.7 20.3a22.6 22.6 0 0 1-11 6.3l-3.3-9.8c1.5 0 3.3-.9 4.6-2.2 2.4-2.3 1.9-4.6-1.7-8.2L690 3.8ZM723.6-14 730-1.3l6.7-6.7-12.6-6.4-.5.4Zm12.5 24.7-8.9 9-16.7-36.5 10.7-10.7 36.4 16.7-8.8 8.9-4.4-2.2-10.5 10.4 2.2 4.4Zm24.3-24.3L734-40l11.3-11.4 13.5 6.5.5-.6-6.4-13.5 11.3-11.3L790.7-44l-8.5 8.6L766.5-51l5.5 12-6.8 6.7-12-5.6L769-22.1l-8.6 8.5Zm34.9-34.9L768.7-75l21.4-21.3 6.6 6.6-12.8 12.8 3.9 3.9 11.6-11.7 5.4 5.4L793-67.7l4 4 13-12.6 6.6 6.6-21.3 21.3Zm30.1-64.2-7 7c-1.6-3.2-4.8-3.3-7.7-.4-2.1 2-2.6 4.4-1.2 6 1.5 1.4 3.8 1 9.1-2.2 9-5.5 13.9-5.8 17.9-1.8 5 5 3.7 12.2-3.3 19.2a30 30 0 0 1-17.9 9.2l-1.7-9.4c3.3.1 9-2.4 12.6-6 2-2 2.8-3.8 1.7-5-.8-.7-2.5-.3-6.5 2-9.8 5.7-15.5 6-19.7 1.8-5.3-5.3-4-13.2 3-20.2 8-8 17-8.2 20.7-.2Zm15.9-8.3c3.9 3.9 8.8 4.2 12.1.8 3.4-3.4 3-8.3-.8-12.1-3.9-3.9-8.8-4.2-12.1-.9-3.4 3.4-3 8.3.8 12.2Z"/>
    <path fill="#0a0a0a" d="m90.2 733.1 15.2 30.4 16.2-16.2L91.3 732l-1.1 1.1Zm88.1.9-63.6-63.5 27-27.1 32.5 15.3 1.3-1.2L160 625l27-27.1 63.6 63.6-20.4 20.4-37.6-37.6L206 673l-16.2 16.2-28.9-13.5 37.8 37.8-20.4 20.4Zm83.4-83.4L198.2 587l51-51 15.9 15.9-30.6 30.6 9.3 9.2 27.8-27.8 12.8 12.8-27.8 27.8 9.7 9.8 30.6-30.7 15.9 16-51 51Zm72-153.6-16.8 16.7c-3.8-7.9-11.5-8-18.4-1-5 5-6.2 10.5-2.7 14 3.5 3.6 8.9 2.6 21.7-5 21.4-13.2 33.2-13.9 42.8-4.4 12.1 12.2 8.9 29.3-8 46-13.8 14-31.3 21.8-42.7 22.1l-4.2-22.5c8 .3 21.6-5.8 30.2-14.3 4.9-5 6.7-9.3 4.2-11.8-2-2-6-1-15.7 4.5-23.3 13.7-37 14.5-47.1 4.3-12.5-12.5-9.4-31.4 7.4-48.2 19.2-19.3 40.6-19.6 49.3-.5Zm17.7.4c-20-20.1-20-47.2.4-67.5 20.4-20.3 47.4-20.5 67.5-.5 20 20.1 19.9 47.2-.5 67.5-20.3 20.4-47.4 20.5-67.4.5Zm20.4-20.5c9.3 9.3 21 10.1 29 2 8.1-8 7.3-19.8-2-29-9.2-9.3-21-10.1-29-2-8 8-7.3 19.8 2 29Zm87.5-23.9-63.6-63.6 22.2-22.1 54.2 18.8-36.5-36.5L456 329l63.6 63.6-23.2 23.2-50.9-17.6 34.2 34.3-20.4 20.4Zm95-95-63.6-63.5 51-51 16 15.8L527 290l9.3 9.3 27.9-27.9 14.4 14.4-27.9 28 24 23.9-20.4 20.4Zm32.9-125.5 12.7 12.7 8-8c5.4-5.4 6-10.8 2-15-4.3-4.2-8.7-3.7-14 1.7l-8.7 8.6Zm46.3 46.3-20.4 20.4-63.6-63.5 32.3-32.4c17.6-17.5 31.7-19.5 45.2-6 9 9 10.5 18.8 4 30l1 1c13-7 27.3-3.6 41.6 10.4l-21.2 21.2c-12.4-11.7-23.9-14-33.8-4.2l-4 4.1 19 19Zm13.4-76.9c-20.1-20-20-47.1.4-67.5 20.3-20.3 47.4-20.5 67.5-.4 20 20 19.9 47-.5 67.4C694 221.8 667 222 647 202Zm20.4-20.4c9.2 9.2 21 10 29 2 8.1-8.1 7.3-19.8-2-29.1-9.2-9.3-21-10-29-2s-7.3 19.8 2 29Zm87.5-24L691.2 94l22.2-22.1 54.2 18.8L731 54l20.4-20.4L815 97.1l-23.2 23.2-51-17.6 34.3 34.3-20.4 20.4ZM840.3 72l-46.4-46.3-18 18-17.2-17.2L815-29.7l17.3 17.2-17.8 17.8 46.3 46.3-20.4 20.5ZM861 13 846.6-1.3 878.2-33l14.4 14.3L861 13Zm59-20.7-63.6-63.6 51-51 16 15.9-30.6 30.6 9.2 9.3 27.9-28 12.8 12.9-27.9 27.9 9.7 9.7 30.6-30.6 16 15.9-51.1 51Z"/>
    <path fill="#2a2524" d="m259.1 780.5-41-41.1 33-33 10.2 10.3-19.8 19.7 6 6 18-18 8.3 8.3-18 18 6.3 6.3 19.7-19.8 10.3 10.3-33 33Zm21.9-81.9 8.3 8.3 5.2-5.2c3.4-3.5 3.9-7 1.2-9.7-2.7-2.7-5.6-2.4-9 1l-5.6 5.6Zm30 30-13.2 13.2-41-41.1 20.8-21c11.3-11.2 20.5-12.5 29.2-3.8 5.9 5.8 6.8 12.2 2.6 19.4l.6.7c8.5-4.6 17.7-2.4 27 6.6l-13.8 13.8c-8-7.6-15.4-9.1-21.8-2.7l-2.7 2.6 12.3 12.3Zm17.9-100.1 13.2-13.2 26 26c10.2 10.2 10.6 21.8 1.1 31.3a35 35 0 0 1-17 9.7l-5.2-15c2.4-.2 5.2-1.4 7.3-3.5 3.5-3.5 2.8-7.1-2.7-12.6L329 628.5Zm39.1 2c-13-13-12.9-30.4.3-43.6 13.1-13.1 30.6-13.2 43.6-.3 13 13 12.8 30.5-.3 43.6-13.2 13.2-30.7 13.3-43.6.3Zm13.2-13.2c6 6 13.5 6.5 18.7 1.3 5.3-5.2 4.7-12.8-1.2-18.8-6-6-13.6-6.5-18.8-1.3-5.3 5.3-4.7 12.8 1.3 18.8Zm82.5-41.4-14.9-15-12.8 12.8 15 15-13.3 13.2-41-41.1 13.1-13.2 15.2 15.1 12.8-12.8-15.2-15.1 13.2-13.2 41.1 41-13.2 13.3Zm20.4-20.4-41-41.1 14.2-14.3 35 12.1-23.5-23.6 13.2-13.2 41 41.1-14.9 15-33-11.3 22.2 22-13.2 13.3Zm77.3-77.3-16 15.9-41-41 16-16c14.4-14.5 30.6-15.9 43.8-2.8 13.1 13.2 11.7 29.4-2.8 43.9Zm-13.9-8.5 2.3-2.3c7-7 7.3-13.7 1.1-19.8-6.1-6.2-12.9-6-19.9 1l-2.2 2.4 18.7 18.7Zm35.2-24.6c-4.2-4.3-4-10 .3-14.3 4.5-4.5 10.1-4.7 14.4-.4 4 4 3.9 9.7-.6 14.2-4.4 4.3-10 4.5-14 .5Zm13.3-83.6 13.2-13.2 25.9 25.9c10.2 10.2 10.6 21.9 1.2 31.3a35 35 0 0 1-17 9.8l-5.2-15c2.4-.2 5.2-1.5 7.2-3.5 3.6-3.6 2.8-7.2-2.6-12.6L596 361.5Zm52-27.5 9.9 19.7 10.4-10.5-19.6-9.8-.7.7Zm19.3 38.3L653.6 386l-25.8-56.3 16.5-16.6 56.4 25.8-13.8 13.8-6.8-3.4-16.2 16.2 3.4 6.8Zm37.7-37.7-41.1-41 17.5-17.5 21 9.9.7-.8-9.9-21 17.5-17.5 41 41-13.1 13.3-24.3-24.3 8.6 18.5-10.5 10.5-18.7-8.7 24.5 24.4-13.3 13.2Zm53.9-53.9-41.1-41 33-33 10.3 10.2-19.8 19.8 6 6 18-18 8.3 8.2-18 18 6.2 6.3 19.8-19.8 10.3 10.3-33 33Zm46.5-99.3-10.9 10.8c-2.4-5-7.4-5.1-11.8-.7-3.3 3.3-4 6.9-1.8 9.2 2.3 2.3 5.8 1.6 14-3.4 13.9-8.4 21.5-8.9 27.7-2.7 7.9 7.8 5.7 18.9-5.1 29.7-9 9-20.3 14-27.7 14.3l-2.7-14.6a32 32 0 0 0 19.5-9.2c3.2-3.2 4.4-6 2.7-7.7-1.3-1.3-3.8-.6-10 3-15.2 8.8-24 9.3-30.5 2.7-8.1-8-6.1-20.3 4.7-31.1 12.5-12.5 26.3-12.7 31.9-.3Zm11.4.3c-13-13-12.8-30.5.3-43.6 13.2-13.2 30.7-13.3 43.6-.3 13 13 12.9 30.4-.3 43.6-13.1 13.1-30.6 13.2-43.6.3Zm13.2-13.2c6 6 13.6 6.5 18.8 1.3 5.2-5.3 4.7-12.8-1.3-18.8s-13.5-6.5-18.8-1.3c-5.2 5.2-4.6 12.8 1.3 18.8Zm56.6-15.5-41-41.1 14.2-14.3 35 12.1-23.5-23.6L884.5 73l41 41.1-14.9 15-33-11.3 22.2 22-13.2 13.3ZM948 91.6l-41.1-41 33-33 10.3 10.2-19.8 19.8 6 6 18-18 9.3 9.3-18 18 15.5 15.5L948 91.6Zm21.3-81.1 8.2 8.2 5.1-5.2c3.5-3.5 4-7 1.3-9.7-2.7-2.7-5.6-2.4-9 1l-5.6 5.7Zm29.9 29.9L986 53.6l-41.1-41 20.9-21c11.3-11.3 20.5-12.6 29.2-4 5.8 6 6.8 12.3 2.6 19.6l.6.6c8.4-4.6 17.7-2.4 27 6.6l-13.8 13.8c-8-7.6-15.4-9.1-21.8-2.7l-2.7 2.6 12.3 12.3Zm8.6-49.7c-13-13-12.8-30.5.3-43.6 13.2-13.2 30.6-13.3 43.6-.3s12.9 30.4-.3 43.6c-13.1 13.1-30.6 13.2-43.6.3Zm13.2-13.2c6 6 13.6 6.5 18.8 1.3 5.2-5.3 4.7-12.8-1.3-18.8s-13.5-6.5-18.8-1.3c-5.2 5.2-4.7 12.8 1.3 18.8Zm56.6-15.5-41.1-41 14.3-14.4 35 12.1-23.5-23.6 13.2-13.2 41 41.1-14.9 15-33-11.3 22.2 22-13.2 13.3Z"/>
    <path fill="#0a0a0a" d="m467 743.7-63.5-63.5 51-51 15.9 15.9-30.6 30.5 9.2 9.3 28-27.9 12.8 12.8-27.9 27.9 9.7 9.7 30.6-30.6 15.9 16-51 50.9Zm71.9-153.5L522 606.9c-3.7-7.8-11.4-8-18.3-1-5 5-6.3 10.6-2.8 14.1 3.6 3.6 9 2.6 21.7-5.2 21.4-13 33.2-13.8 42.8-4.2 12.1 12.1 8.9 29.2-8 46-13.8 13.9-31.2 21.7-42.7 22l-4.1-22.5c7.9.3 21.6-5.8 30-14.3 5-5 6.8-9.3 4.3-11.8-2-2-6-1-15.6 4.5-23.4 13.7-37 14.5-47.1 4.3-12.6-12.5-9.5-31.4 7.3-48.2 19.2-19.2 40.7-19.6 49.3-.4Zm17.7.4c-20-20-19.9-47 .4-67.4 20.4-20.3 47.4-20.5 67.4-.5 20.1 20.1 20 47.1-.4 67.5-20.3 20.3-47.4 20.5-67.4.4Zm20.4-20.4c9.2 9.3 21 10 29 2 8.1-8 7.3-19.8-2-29-9.2-9.3-21-10.1-29-2-8 8-7.3 19.7 2 29Zm87.4-23.9L601 482.8l22.1-22.2 54.2 18.8-36.5-36.5 20.5-20.4 63.5 63.5-23.2 23.2-50.9-17.5 34.2 34.2-20.4 20.4Zm94.9-94.9-63.5-63.5 51-51 15.9 15.9-30.6 30.5 9.3 9.3 27.8-27.9 14.4 14.5-27.8 27.8 24 24-20.5 20.4ZM792.2 326l12.7 12.6 8-8c5.4-5.3 6-10.7 1.9-15-4.2-4-8.6-3.6-14 1.7l-8.6 8.6Zm46.3 46.2L818 392.6l-63.5-63.5 32.3-32.3c17.5-17.5 31.6-19.5 45-6 9.1 9 10.6 18.8 4 30l1 1c13.1-7 27.4-3.7 41.7 10.3l-21.2 21.2c-12.5-11.7-23.9-14-33.8-4.1l-4 4 18.9 19Zm13.3-76.8c-20-20-19.9-47.1.5-67.4 20.3-20.4 47.3-20.6 67.4-.5 20 20 19.9 47-.5 67.4-20.3 20.3-47.3 20.5-67.4.5Zm20.4-20.4c9.3 9.2 21 10 29 2 8.1-8.1 7.3-19.8-2-29-9.2-9.3-20.9-10.2-29-2-8 8-7.2 19.7 2 29Zm87.5-24-63.5-63.5 22-22.1 54.3 18.8-36.5-36.5 20.4-20.4 63.5 63.5-23.1 23.1-51-17.5 34.3 34.2-20.4 20.4Zm85.3-85.4-46.2-46.2-18 18-17.2-17.3 56.1-56.2 17.3 17.3-17.8 17.7 46.3 46.3-20.4 20.4Zm20.8-58.9-14.4-14.4 31.6-31.6 14.3 14.4-31.5 31.6Zm59-20.7-63.6-63.6 51-51 16 16-30.7 30.5 9.3 9.3 27.8-27.9 12.8 12.8-27.8 27.9 9.7 9.7 30.6-30.6 15.8 15.9-51 51Zm59.8-59.9L1121-37.4l22.2-22.1 54.1 18.8-36.4-36.5 20.4-20.4 63.5 63.5-23.1 23.1-51-17.5L1205 5.7l-20.4 20.4ZM1259-82.8l3.6-3.6c10.8-10.8 11.3-21.2 1.7-30.7-9.5-9.6-20-9.1-30.7 1.7l-3.6 3.5 29 29Z"/>
    <path fill="#2a2524" d="m539.1 716.4 13.3-13.3 26 26c10.3 10.3 10.7 22 1.2 31.5a35 35 0 0 1-17 9.8l-5.3-15a12 12 0 0 0 7.3-3.6c3.6-3.6 2.8-7.1-2.7-12.6l-22.8-22.8Zm39.2 2c-13-13-12.9-30.6.3-43.8 13.2-13.1 30.8-13.3 43.8-.2 13 13 12.9 30.5-.3 43.7-13.2 13.2-30.7 13.3-43.8.3Zm13.3-13.2c6 6 13.6 6.5 18.8 1.3 5.3-5.3 4.8-12.9-1.3-18.9-6-6-13.6-6.5-18.8-1.3-5.2 5.3-4.7 12.9 1.3 18.9Zm82.8-41.7-15-15-12.8 13 15 14.9-13.3 13.2-41.2-41.2 13.3-13.3 15.2 15.2 12.8-12.8-15.2-15.2 13.3-13.2 41.2 41.2-13.3 13.2Zm20.5-20.4-41.2-41.2 14.3-14.4 35.2 12.2-23.7-23.7 13.3-13.2L734 604l-15 15-33-11.4 22.1 22.2-13.2 13.3Zm77.6-77.6-16 16-41.2-41.2 16-16c14.5-14.5 30.7-16 44-2.8 13.1 13.2 11.7 29.5-2.8 44Zm-14-8.4 2.3-2.3c7-7 7.4-13.8 1.2-20-6.2-6.2-13-5.9-20 1.1l-2.3 2.3 18.8 18.9Zm35.4-24.8c-4.3-4.3-4.1-10 .2-14.3 4.5-4.6 10.2-4.7 14.5-.4 4 4 3.9 9.7-.6 14.2-4.4 4.4-10.1 4.5-14.1.5Zm13.2-83.9 13.3-13.3 26 26c10.3 10.3 10.7 22 1.2 31.5a35 35 0 0 1-17 9.8l-5.3-15a12 12 0 0 0 7.3-3.5c3.6-3.6 2.8-7.2-2.7-12.7l-22.8-22.8Zm52.3-27.5 9.9 19.7 10.4-10.5-19.6-10-.7.8Zm19.3 38.3L865 473l-26-56.5 16.7-16.6 56.5 25.9-13.8 13.8-6.8-3.5-16.3 16.3 3.4 6.8Zm37.8-37.7-41.2-41.3 17.5-17.5 21 10 .9-.9-10-21 17.6-17.6 41.2 41.3-13.2 13.2-24.4-24.4 8.6 18.7-10.5 10.4-18.7-8.7 24.5 24.5-13.3 13.3Zm54.1-54.2-41.2-41.2 33.1-33 10.3 10.2-19.8 19.9 6 6 18-18.1 8.4 8.3-18.1 18 6.3 6.4 19.8-19.9 10.3 10.3-33 33.1Zm46.7-99.6-10.9 10.9c-2.4-5.2-7.4-5.2-11.9-.7-3.2 3.2-4 6.9-1.8 9.2 2.3 2.3 5.8 1.6 14.1-3.4 14-8.5 21.6-9 27.8-2.8 7.9 8 5.7 19-5.2 29.9-9 9-20.3 14-27.7 14.3l-2.7-14.6a32 32 0 0 0 19.5-9.3c3.2-3.2 4.4-6 2.7-7.7-1.3-1.3-3.8-.6-10 3-15.2 8.9-24 9.3-30.7 2.7-8-8-6-20.3 4.8-31.2 12.5-12.5 26.4-12.8 32-.3Zm11.5.3c-13-13-13-30.6.3-43.8 13.2-13.2 30.7-13.3 43.7-.3 13 13 13 30.6-.3 43.8-13.2 13.2-30.7 13.3-43.7.3Zm13.2-13.3c6 6 13.6 6.6 18.9 1.3 5.2-5.2 4.7-12.8-1.3-18.8s-13.6-6.6-18.9-1.3c-5.2 5.2-4.7 12.8 1.3 18.8Zm56.8-15.5-41.2-41.2 14.3-14.4 35.2 12.2-23.7-23.7 13.3-13.3 41.2 41.3-15 15-33-11.4L1112 226l-13.2 13.3Zm61.6-61.6-41.2-41.2 33-33.1 10.4 10.3-19.9 19.8 6 6 18.1-18 9.4 9.3-18.1 18 15.6 15.6-13.3 13.3Zm21.4-81.4 8.2 8.2 5.2-5.2c3.5-3.5 4-7 1.2-9.7-2.7-2.7-5.6-2.4-9 1l-5.7 5.7Zm30 30-13.3 13.2-41.2-41.2 21-21c11.3-11.3 20.5-12.6 29.2-3.9 6 5.9 6.9 12.3 2.6 19.6l.7.6c8.5-4.6 17.7-2.4 27 6.7l-13.8 13.7c-8-7.6-15.5-9-21.9-2.7l-2.6 2.7 12.3 12.3Zm8.6-49.9c-13-13-12.9-30.6.3-43.8 13.2-13.1 30.8-13.3 43.8-.2 13 13 12.9 30.5-.3 43.7-13.2 13.2-30.7 13.3-43.8.3Zm13.3-13.2c6 6 13.6 6.5 18.8 1.3 5.3-5.3 4.8-12.9-1.3-18.9-6-6-13.6-6.5-18.8-1.3-5.3 5.3-4.7 12.9 1.3 18.9Zm56.8-15.6-41.3-41.2 14.4-14.4 35.2 12.2-23.7-23.7 13.2-13.2 41.3 41.2-15 15-33.1-11.3 22.2 22.2-13.3 13.2Zm55.4-55.4-30-30-11.7 11.6-11.2-11.2 36.5-36.4 11.1 11.2-11.5 11.5 30 30L1346-7.9Zm13.4-38.3-9.3-9.3 20.5-20.5 9.3 9.3-20.5 20.5Z"/>
    <path fill="#0a0a0a" d="M662.2 771c8 8 18 8.7 25 1.7 7-7 6.3-17-1.7-25s-18-8.6-25-1.7c-7 7-6.2 17 1.7 25Zm75.3-20.6-54.7-54.6 19-19 46.7 16-31.4-31.3 17.6-17.6 54.6 54.7-20 19.9-43.7-15 29.4 29.4-17.5 17.5Zm81.6-81.6L764.5 614l43.8-43.8 13.7 13.6-26.3 26.3 8 8 24-24 12.3 12.4-24 24 20.7 20.6-17.6 17.6Zm28.3-107.9 11 10.9 6.8-6.9c4.6-4.6 5.2-9.3 1.6-12.9-3.5-3.6-7.4-3.2-12 1.4l-7.4 7.5Zm39.8 39.8-17.5 17.5-54.7-54.6 27.8-27.8c15-15 27.2-16.8 38.8-5.2 7.8 7.8 9 16.2 3.4 25.9l.9.8c11.2-6 23.5-3.2 35.8 8.9l-18.2 18.2c-10.7-10-20.6-12-29-3.6l-3.6 3.6 16.3 16.3Zm11.5-66.1c-17.3-17.3-17.1-40.6.4-58 17.5-17.5 40.7-17.7 58-.4 17.2 17.2 17 40.5-.4 58-17.5 17.5-40.8 17.6-58 .4Zm17.6-17.6c8 8 18 8.7 25 1.7 6.9-7 6.2-17-1.8-25s-18-8.6-25-1.7c-7 7-6.2 17 1.8 25Zm75.2-20.6-54.7-54.6 19-19 46.7 16-31.4-31.3 17.6-17.6 54.6 54.7-19.9 19.9-43.8-15 29.4 29.3-17.5 17.6ZM1065 423l-40-40-15.4 15.5-14.9-14.8 48.4-48.4 14.8 14.9-15.3 15.3 39.8 39.8-17.5 17.5Zm17.8-50.8-12.4-12.3 27.2-27.2 12.3 12.3-27.2 27.2Zm50.7-17.8-54.6-54.7 43.8-43.8 13.7 13.6-26.3 26.3 8 8 24-24 11 11-24 24 8.3 8.4 26.3-26.3 13.7 13.6-43.9 43.9ZM1185 303l-54.7-54.7 19-19 46.7 16-31.4-31.3 17.6-17.6 54.6 54.7-20 19.9-43.7-15 29.4 29.4-17.5 17.5Zm82.5-82.6-21.2 21.2-54.6-54.7 21.1-21.1c19.3-19.3 40.9-21.2 58.4-3.7 17.4 17.5 15.6 39-3.7 58.3Zm-18.4-11.2 3-3c9.3-9.4 9.7-18.3 1.5-26.5s-17.2-7.9-26.5 1.4l-3 3 25 25ZM1326 162l-54.7-54.7 43.9-43.8 13.6 13.6-26.3 26.3 8 8 24-24 11 11-24 24 8.3 8.3 26.3-26.3 13.7 13.7-43.9 43.9Z"/>
    <path fill="#2a2524" d="M818.4 772c-3.9-3.8-3.7-9 .2-12.8 4-4.1 9.1-4.2 13-.4 3.6 3.6 3.5 8.7-.6 12.8-3.9 4-9 4-12.6.5Zm11.9-75.3 11.9-12 23.4 23.4c9.2 9.3 9.6 19.8 1 28.3a31.5 31.5 0 0 1-15.3 8.8l-4.7-13.6c2.2-.1 4.7-1.2 6.5-3 3.3-3.3 2.6-6.5-2.3-11.5l-20.5-20.4Zm46.9-24.7 8.9 17.6 9.4-9.4-17.7-8.9-.6.7Zm17.4 34.4-12.4 12.4L859 668l14.9-15 50.8 23.4-12.4 12.3-6.1-3-14.7 14.6 3.1 6.1Zm33.9-33.9-37-37 15.8-15.8 18.9 9 .7-.8-9-19 15.8-15.7 37 37-11.8 12-22-22 7.8 16.8-9.4 9.4-16.9-7.8 22 22-11.9 11.9Zm48.7-48.6-37-37 29.7-29.8 9.2 9.2-17.8 17.9 5.4 5.4 16.2-16.3 7.5 7.5-16.2 16.2 5.6 5.7 17.8-17.8 9.3 9.2-29.7 29.8Zm41.8-89.6-9.7 9.8c-2.2-4.6-6.7-4.7-10.7-.6-2.9 2.9-3.6 6.2-1.6 8.2 2 2 5.2 1.5 12.7-3 12.5-7.6 19.3-8 24.9-2.5 7 7.1 5.2 17-4.6 26.8a41.8 41.8 0 0 1-25 13l-2.4-13.2c4.6.1 12.6-3.4 17.6-8.4 2.9-2.8 4-5.4 2.4-6.9-1.1-1.1-3.4-.5-9 2.7-13.7 8-21.6 8.4-27.5 2.5-7.3-7.3-5.5-18.3 4.3-28.1 11.2-11.2 23.7-11.5 28.7-.3Zm10.4.3c-11.7-11.7-11.6-27.5.3-39.3 11.8-11.9 27.6-12 39.3-.3 11.7 11.7 11.6 27.5-.3 39.3-11.8 11.9-27.6 12-39.3.3Zm12-12c5.3 5.5 12.1 6 16.8 1.2 4.8-4.7 4.3-11.5-1.1-16.9-5.4-5.4-12.2-5.9-17-1.2-4.7 4.8-4.2 11.6 1.2 17Zm50.9-13.9-37-37 12.9-13 31.6 11-21.3-21.2 11.9-12 37 37-13.5 13.6-29.6-10.2 20 20-12 11.8Zm55.4-55.3-37-37 29.6-29.8 9.3 9.3-17.8 17.8 5.4 5.4 16.2-16.3 8.4 8.5-16.2 16.2 14 14-12 11.9Zm19.1-73.2 7.4 7.4 4.7-4.6c3.1-3.1 3.5-6.3 1.1-8.8-2.4-2.4-5-2.1-8.2 1l-5 5Zm27 27-11.9 12-37-37.1 18.8-18.9c10.2-10.2 18.5-11.3 26.3-3.5 5.3 5.3 6.1 11 2.3 17.6l.6.5c7.6-4 16-2.1 24.3 6l-12.4 12.4c-7.2-6.8-13.9-8.2-19.7-2.4l-2.3 2.4 11 11Zm7.8-44.8c-11.7-11.7-11.6-27.5.3-39.3 11.8-11.9 27.6-12 39.3-.3 11.7 11.7 11.6 27.5-.3 39.3-11.9 11.9-27.6 12-39.3.3Zm11.9-12c5.4 5.5 12.2 6 17 1.3 4.6-4.8 4.2-11.6-1.2-17s-12.3-5.8-17-1.1c-4.7 4.7-4.2 11.5 1.2 16.9Zm51-13.9-37-37 12.8-13 31.6 11-21.2-21.2 11.9-12 37 37.1-13.5 13.5-29.7-10.2 20 20-12 11.8Zm49.8-49.8-27-27-10.5 10.5-10-10 32.7-32.8 10 10-10.3 10.4 27 27-12 12Zm12-34.4-8.3-8.3 18.4-18.4 8.4 8.3-18.5 18.4Zm34.5-12-37-37 29.7-29.8 9.2 9.3-17.8 17.8 5.4 5.4 16.2-16.3 7.5 7.5-16.3 16.2 5.7 5.7 17.8-17.8 9.3 9.2-29.8 29.8Z"/>
    <path fill="#0a0a0a" d="m1008.1 741.4-54.7-54.8 44-44 13.6 13.7-26.3 26.4 8 8 24-24L1029 679l-24 24 20.7 20.7-17.6 17.6Zm28.4-108.2 11 11 6.8-7c4.7-4.5 5.3-9.2 1.7-12.8-3.6-3.6-7.4-3.2-12 1.4l-7.5 7.4Zm40 40-17.7 17.5L1004 636l28-28c15-15 27.3-16.8 38.9-5.2 7.8 7.8 9 16.2 3.4 26l.9.8c11.2-6.1 23.5-3.2 35.9 8.8l-18.3 18.3c-10.7-10-20.6-12-29.1-3.6l-3.5 3.6 16.3 16.3Zm11.4-66.3c-17.3-17.3-17.1-40.6.4-58.2 17.5-17.5 40.8-17.6 58.1-.4 17.3 17.3 17.1 40.6-.4 58.2-17.5 17.5-40.8 17.6-58.1.4Zm17.6-17.6c8 8 18 8.6 25 1.7 7-7 6.3-17-1.7-25s-18-8.7-25-1.8c-7 7-6.3 17 1.7 25Zm75.4-20.7L1126 514l19.1-19.1L1192 511l-31.4-31.5L1178 462l54.7 54.8-20 20-43.8-15.2 29.5 29.5-17.6 17.6Zm73.6-73.6-39.9-39.9-15.5 15.5-14.8-14.9 48.4-48.4 14.8 14.9-15.3 15.3 40 40-17.7 17.5Zm17.8-50.8-12.3-12.4 27.2-27.2 12.4 12.3-27.3 27.3Zm50.9-17.9-54.8-54.8 44-44 13.7 13.8-26.4 26.3 8 8 24-24 11 11-24 24 8.4 8.4 26.4-26.3 13.7 13.6-44 44Zm51.6-51.6L1320 320l19.1-19.1 46.7 16.2-31.4-31.5L1372 268l54.7 54.8-20 20-43.8-15.2 29.5 29.5-17.6 17.6Z"/>
    <path fill="#2a2524" d="m1080.7 731 9 17.8 9.5-9.5-17.9-9-.6.7Zm17.6 34.8-12.5 12.5-23.5-51.4 15-15 51.4 23.5-12.5 12.5-6.3-3-14.7 14.7 3 6.2Zm34.3-34.3-37.4-37.5 15.9-15.9 19 9 .8-.7-9-19 16-16 37.4 37.4-12 12-22.2-22.1 7.8 16.9-9.5 9.5-17-7.9 22.2 22.3-12 12Zm49.1-49.2-37.4-37.4 30-30 9.4 9.3-18 18 5.4 5.5 16.5-16.4 7.5 7.5-16.4 16.4 5.7 5.7 18-18 9.4 9.4-30 30Zm42.4-90.5-9.9 10c-2.2-4.7-6.7-4.8-10.8-.7-3 3-3.7 6.3-1.6 8.3 2 2.1 5.2 1.5 12.8-3 12.6-7.7 19.6-8.1 25.2-2.5 7.1 7.1 5.2 17.2-4.7 27a42.2 42.2 0 0 1-25.2 13l-2.4-13.2a29 29 0 0 0 17.7-8.4c3-3 4-5.5 2.5-7-1.2-1.2-3.5-.6-9.2 2.7-13.8 8-21.8 8.5-27.8 2.5-7.4-7.4-5.5-18.5 4.4-28.4 11.3-11.3 24-11.5 29-.3Zm10.4.3c-11.8-11.8-11.7-27.7.3-39.7 12-12 28-12.1 39.7-.3 11.8 11.8 11.7 27.8-.2 39.7-12 12-28 12.1-39.8.3Zm12-12c5.5 5.4 12.4 6 17.2 1.2 4.7-4.8 4.3-11.7-1.2-17.2-5.5-5.4-12.4-5.9-17.1-1.1-4.8 4.7-4.3 11.6 1.2 17ZM1298 566l-37.3-37.5 13-13 32 11-21.6-21.4 12-12 37.5 37.4L1320 544l-30-10.3 20.1 20.1-12 12Zm56-56-37.4-37.4 30-30 9.4 9.3-18 18 5.4 5.5 16.4-16.4 8.6 8.5-16.5 16.4 14.2 14.1-12 12Zm19.4-73.9 7.5 7.5 4.7-4.7c3.2-3.2 3.6-6.4 1.1-8.8-2.4-2.5-5-2.2-8.2 1l-5 5Zm27.3 27.3-12 12-37.5-37.4 19-19c10.4-10.4 18.7-11.6 26.6-3.6 5.4 5.3 6.2 11 2.4 17.7l.6.6c7.7-4.2 16-2.2 24.5 6l-12.5 12.6c-7.3-7-14-8.3-19.9-2.5l-2.4 2.4 11.2 11.2Z"/>
  </g>
  <defs>
    <clipPath id="a">
      <path fill="#fff" d="M0 0h1280v600H0z"/>
    </clipPath>
  </defs>
</svg>
