<svg width="80" height="80" xmlns="http://www.w3.org/2000/svg"><path d="M0 0v80h80V0H0zm26.237 62.806c.746 0 1.392-.054 1.939-.162.547-.108.99-.29 1.33-.547.34-.257.609-.518.808-.783.199-.265.344-.646.435-1.143.091-.497.145-.932.162-1.305a38 38 0 0 0 .025-1.603h-4.698v-9.098h12.678c.398 2.569.597 4.864.597 6.886 0 4.607-1.077 7.984-3.232 10.13-2.154 2.146-5.502 3.219-10.043 3.219v-5.593zm16.58 0c.746 0 1.392-.054 1.939-.162.547-.108.99-.29 1.33-.547.34-.257.609-.518.808-.783.199-.265.344-.646.435-1.143.091-.497.145-.932.162-1.305a38 38 0 0 0 .025-1.603h-4.698v-9.098h12.678c.398 2.569.597 4.864.597 6.886 0 4.607-1.077 7.984-3.232 10.13-2.154 2.146-5.502 3.219-10.043 3.219v-5.593z" fill="#000"/></svg>