<svg xmlns="http://www.w3.org/2000/svg" fill="none" viewBox="0 0 213 35"><g clip-path="url(#a)"><path fill="#fff" d="M0 0h213v35H0z"/><path fill="#000" d="M59.492 22.522a1.595 1.595 0 0 0-1.075.412c-1.47 1.26-2.912 1.964-5.048 1.964-3.862 0-6.662-3.254-6.662-7.288v-.058c0-4.008 2.829-7.24 6.662-7.24a7.254 7.254 0 0 1 4.818 1.848 1.775 1.775 0 0 0 2.535-.492c.176-.274.277-.592.29-.919a1.824 1.824 0 0 0-.18-.8 1.793 1.793 0 0 0-.511-.635C58.564 7.936 56.513 7 53.397 7 47.302 7 43 11.777 43 17.61v.059c0 5.895 4.385 10.566 10.268 10.566 3.26 0 5.425-1.053 7.329-2.754a1.74 1.74 0 0 0 .577-1.29 1.73 1.73 0 0 0-.508-1.18 1.675 1.675 0 0 0-1.174-.489Zm13.212-6.537c-3.897-.94-4.819-1.643-4.819-3.224v-.059c0-1.351 1.212-2.434 3.288-2.434 1.588 0 3.087.525 4.661 1.553.278.175.598.267.925.266a1.63 1.63 0 0 0 1.178-.483 1.683 1.683 0 0 0 .493-1.19 1.642 1.642 0 0 0-.198-.825 1.61 1.61 0 0 0-.58-.61 10.986 10.986 0 0 0-6.403-1.906c-4.009 0-6.891 2.43-6.891 5.95v.058c0 3.782 2.42 5.072 6.718 6.129 3.75.878 4.557 1.669 4.557 3.137v.058c0 1.524-1.384 2.58-3.585 2.58a8.665 8.665 0 0 1-5.654-2.11 1.696 1.696 0 0 0-2.434.466 1.763 1.763 0 0 0-.276.883c-.002.269.06.534.18.774.121.24.296.446.512.603a12.418 12.418 0 0 0 7.582 2.58c4.242 0 7.214-2.289 7.214-6.129v-.058c.01-3.4-2.201-4.956-6.468-6.009Zm17.88 0c-3.894-.94-4.815-1.643-4.815-3.224v-.059c0-1.351 1.212-2.434 3.288-2.434 1.584 0 3.087.525 4.66 1.553.278.175.599.267.925.266a1.63 1.63 0 0 0 1.178-.483 1.681 1.681 0 0 0 .493-1.19 1.642 1.642 0 0 0-.197-.825 1.61 1.61 0 0 0-.58-.61 10.985 10.985 0 0 0-6.422-1.906c-4.008 0-6.895 2.43-6.895 5.95v.058c0 3.782 2.424 5.072 6.723 6.129 3.75.878 4.557 1.669 4.557 3.137v.058c0 1.524-1.384 2.58-3.585 2.58a8.665 8.665 0 0 1-5.65-2.11 1.7 1.7 0 0 0-2.437.466c-.17.264-.265.568-.278.883 0 .269.062.534.182.773.12.24.295.447.51.604a12.439 12.439 0 0 0 7.586 2.58c4.242 0 7.21-2.289 7.21-6.129v-.058c.008-3.4-2.183-4.956-6.453-6.009Zm16.356 1.174h-5.425c-.441.02-.858.213-1.163.538a1.761 1.761 0 0 0-.475 1.205c0 .45.17.881.475 1.206.305.325.722.517 1.163.538h5.425c.441-.02.858-.213 1.163-.538.306-.325.476-.757.476-1.206 0-.449-.17-.88-.476-1.206a1.705 1.705 0 0 0-1.163-.537Zm16.342-9.795H109.88a1.621 1.621 0 0 0-1.213.461 1.68 1.68 0 0 0-.509 1.21 1.681 1.681 0 0 0 .509 1.21 1.638 1.638 0 0 0 1.213.46h4.901v15.541c0 .483.189.947.525 1.288.336.342.792.534 1.268.534.475 0 .931-.192 1.267-.534.337-.341.525-.805.525-1.288v-15.54h4.916c.422-.02.821-.205 1.114-.516.292-.311.455-.725.455-1.155 0-.43-.163-.844-.455-1.155a1.638 1.638 0 0 0-1.114-.516Zm13.929 0h-7.2a1.737 1.737 0 0 0-1.276.525 1.804 1.804 0 0 0-.516 1.297V26.25c.061.434.274.831.6 1.119a1.775 1.775 0 0 0 2.349 0c.326-.288.539-.685.6-1.12v-5.516h4.471l4.901 6.362c.187.293.444.532.747.697.303.164.642.248.985.243a1.65 1.65 0 0 0 1.192-.478 1.724 1.724 0 0 0 .511-1.195 2.122 2.122 0 0 0-.577-1.377l-3.865-4.955c2.71-.85 4.585-2.842 4.585-6.129v-.058a6.266 6.266 0 0 0-1.674-4.427c-1.294-1.29-3.27-2.052-5.823-2.052h-.01Zm3.904 6.741c0 2.08-1.613 3.429-4.152 3.429h-5.191v-6.887h5.163c2.624 0 4.18 1.203 4.18 3.403v.055Zm9.662-6.886a1.723 1.723 0 0 0-.684.124 1.76 1.76 0 0 0-.973.971 1.81 1.81 0 0 0-.135.694v17.238c.02.464.216.902.546 1.223.33.32.77.5 1.227.5a1.76 1.76 0 0 0 1.226-.5c.33-.321.526-.76.547-1.223V9.004a1.8 1.8 0 0 0-.511-1.264 1.737 1.737 0 0 0-1.243-.521Zm22.469 15.303a1.583 1.583 0 0 0-1.075.412c-1.474 1.26-2.915 1.964-5.048 1.964-3.865 0-6.665-3.254-6.665-7.288v-.058c0-4.008 2.828-7.24 6.665-7.24a7.248 7.248 0 0 1 4.815 1.848c.308.24.687.367 1.075.364a1.703 1.703 0 0 0 1.246-.503 1.768 1.768 0 0 0 .515-1.257 1.854 1.854 0 0 0-.183-.8 1.818 1.818 0 0 0-.509-.636c-1.761-1.377-3.808-2.313-6.923-2.313-6.117 0-10.398 4.776-10.398 10.61v.058c0 5.896 4.381 10.567 10.268 10.567 3.259 0 5.421-1.053 7.325-2.755a1.747 1.747 0 0 0 .577-1.29 1.727 1.727 0 0 0-.504-1.19 1.676 1.676 0 0 0-1.181-.493Zm14.7-6.129 6.289-6.154a1.775 1.775 0 0 0 .514-1.994 1.646 1.646 0 0 0-.893-.905 1.603 1.603 0 0 0-.632-.121 1.84 1.84 0 0 0-1.463.692l-9.573 9.772V9.004a1.815 1.815 0 0 0-.546-1.223c-.331-.32-.77-.5-1.227-.5-.457 0-.896.18-1.226.5-.331.321-.526.76-.547 1.223v17.238c.021.464.216.902.547 1.223a1.758 1.758 0 0 0 2.453 0c.33-.32.526-.759.546-1.223v-4.248l3.288-3.225 6.489 8.417c.16.258.382.471.645.62.262.148.557.227.857.229a1.727 1.727 0 0 0 1.657-1.071c.09-.218.137-.452.136-.689a1.974 1.974 0 0 0-.488-1.29l-6.826-8.592Zm18.572-.408c-3.894-.94-4.815-1.643-4.815-3.224v-.059c0-1.351 1.212-2.434 3.287-2.434 1.589 0 3.087.525 4.661 1.553.278.175.599.267.925.266a1.632 1.632 0 0 0 1.178-.483 1.694 1.694 0 0 0 .493-1.19 1.636 1.636 0 0 0-.767-1.435 10.985 10.985 0 0 0-6.403-1.906c-4.009 0-6.895 2.43-6.895 5.95v.058c0 3.782 2.424 5.072 6.722 6.129 3.751.878 4.557 1.669 4.557 3.137v.058c0 1.524-1.384 2.58-3.585 2.58a8.662 8.662 0 0 1-5.65-2.11 1.701 1.701 0 0 0-2.436.466 1.75 1.75 0 0 0-.278.883 1.705 1.705 0 0 0 .695 1.377 12.417 12.417 0 0 0 7.583 2.58c4.241 0 7.21-2.289 7.21-6.129v-.058c-.011-3.4-2.201-4.956-6.471-6.009h-.011Z"/><g clip-path="url(#b)"><path fill="#000" d="m15.272 21.53-7.954 5.833c-.954.637-1.698 1.06-2.652 1.06-1.909 0-3.5-1.696-3.5-3.603 0-1.593 1.273-2.76 2.44-3.29l9.333-4.03-9.333-4.137c-1.268-.53-2.44-1.696-2.44-3.287 0-1.909 1.698-3.5 3.604-3.5.955 0 1.59.318 2.545 1.06l7.954 5.834-1.057-9.44C13.894 1.802 15.378 0 17.5 0c2.121 0 3.603 1.697 3.288 3.924l-1.064 9.546 7.955-5.833c.957-.743 1.7-1.06 2.655-1.06a3.531 3.531 0 0 1 3.5 3.5c0 1.696-1.167 2.757-2.44 3.287L22.06 17.5l9.334 4.03c1.273.53 2.44 1.697 2.44 3.394 0 1.909-1.698 3.5-3.604 3.5-.849 0-1.591-.424-2.546-1.06l-7.96-5.834 1.06 9.44c.318 2.227-1.166 4.03-3.288 4.03-2.121 0-3.603-1.697-3.288-3.924l1.064-9.546Z"/></g></g><defs><clipPath id="a"><path fill="#fff" d="M0 0h213v35H0z"/></clipPath><clipPath id="b"><path fill="#fff" d="M0 0h35v35H0z"/></clipPath></defs></svg>