<svg width="280" height="380" viewBox="0 0 280 380" xmlns="http://www.w3.org/2000/svg" xmlns:sketch="http://www.bohemiancoding.com/sketch/ns"><g sketch:type="MSLayerGroup" fill="none"><g fill="#000" sketch:type="MSShapeGroup"><g><path d="M42 323h197v2h-197zM42 319h2v11h-2zM237 319h2v10h-2z"/></g><path d="M87.349 353.302c0 .392.21.689.63.892.42.203.98.305 1.68.305s1.274-.122 1.722-.367c.448-.245.672-.549.672-.913 0-.322-.136-.539-.409-.651-.273-.112-.668-.168-1.187-.168h-1.071c-.364 0-.658-.01-.882-.032-.224-.021-.42-.052-.588-.094-.378.336-.567.679-.567 1.029zm-2.541.483c0-.84.497-1.54 1.491-2.1v-.084c-.28-.182-.511-.413-.693-.693-.182-.28-.273-.637-.273-1.071 0-.378.112-.738.336-1.081.224-.343.504-.633.84-.872v-.084c-.364-.252-.689-.612-.977-1.082-.287-.469-.431-1.011-.431-1.627 0-.63.119-1.179.357-1.649.238-.469.556-.861.955-1.176.399-.315.857-.549 1.376-.704.518-.154 1.057-.231 1.617-.231.616 0 1.155.084 1.617.252h3.801v2.247h-1.659c.098.154.178.35.242.588.063.238.095.497.095.777 0 .602-.105 1.123-.315 1.564-.21.441-.5.805-.871 1.092-.371.287-.805.5-1.302.64s-1.032.21-1.607.21c-.406 0-.826-.07-1.26-.21-.14.112-.238.224-.294.336-.056.112-.084.259-.084.441 0 .266.115.462.346.588.231.126.64.189 1.229.189h1.68c1.288 0 2.271.206 2.95.619.679.413 1.019 1.088 1.019 2.026 0 .546-.136 1.046-.41 1.502-.273.455-.661.847-1.166 1.176-.504.329-1.113.588-1.827.777-.714.189-1.519.283-2.415.283-.616 0-1.186-.052-1.712-.157-.525-.105-.987-.262-1.386-.472-.399-.21-.71-.483-.934-.819-.224-.336-.336-.735-.336-1.197zm4.599-6.951c.406 0 .745-.143 1.019-.43.273-.287.41-.724.41-1.313 0-.546-.136-.962-.41-1.25-.273-.287-.612-.43-1.019-.43-.406 0-.745.14-1.018.42-.273.28-.41.7-.41 1.26 0 .588.136 1.025.41 1.313.273.287.612.43 1.018.43zm7.366-9.555h3.087v11.613c0 .322.059.546.178.672s.241.189.367.189h.178l.2-.042.378 2.289c-.168.07-.381.129-.64.178-.259.049-.563.074-.914.074-.532 0-.98-.084-1.344-.252-.364-.168-.654-.402-.872-.703-.217-.301-.374-.665-.472-1.092-.098-.427-.147-.906-.147-1.439v-11.487zm6.337 16.233l.336.084c.126.028.245.042.357.042.518 0 .917-.126 1.197-.378s.49-.581.63-.987l.147-.546-4.011-10.143h3.108l1.491 4.473c.154.476.294.959.42 1.449.126.49.259.994.399 1.512h.084c.112-.49.227-.983.347-1.48.119-.497.241-.99.367-1.481l1.26-4.473h2.961l-3.612 10.521c-.252.658-.514 1.235-.787 1.733-.273.497-.588.91-.945 1.239-.357.329-.763.577-1.218.745-.455.168-.99.252-1.607.252-.322 0-.595-.017-.819-.052-.224-.035-.441-.087-.651-.158l.546-2.352zm13.897-.693v3.045h-3.087v-14.28h2.52l.21 1.029h.084c.406-.364.864-.668 1.376-.913.511-.245 1.039-.367 1.585-.367.63 0 1.197.126 1.701.378s.931.609 1.281 1.071c.35.462.619 1.018.808 1.67.189.651.284 1.375.284 2.173 0 .896-.122 1.69-.368 2.384-.245.693-.574 1.281-.987 1.764-.413.483-.882.85-1.407 1.103-.525.252-1.067.378-1.627.378-.448 0-.882-.094-1.302-.284-.42-.189-.812-.458-1.176-.809l.105 1.659zm0-3.759c.28.252.56.427.84.525.28.098.553.147.819.147.532 0 .987-.241 1.365-.724s.567-1.263.567-2.341c0-1.876-.602-2.814-1.806-2.814-.602 0-1.197.315-1.785.945v4.263zm9.046-11.781h3.087v3.612l-.147 1.869c.392-.35.847-.675 1.365-.977.518-.301 1.134-.451 1.848-.451 1.134 0 1.956.371 2.468 1.113.511.742.766 1.771.766 3.087v6.468h-3.087v-6.069c0-.756-.101-1.274-.304-1.554-.203-.28-.528-.42-.977-.42-.392 0-.728.087-1.008.262-.28.175-.588.423-.924.745v7.035h-3.087v-14.721zm15.698 4.305h3.066l1.008 4.83c.084.518.161 1.029.231 1.533s.147 1.022.231 1.554h.084l.284-1.575c.091-.518.199-1.022.326-1.512l1.155-4.83h2.667l1.176 4.83c.126.518.238 1.029.336 1.533.098.504.203 1.022.315 1.554h.084c.098-.532.178-1.05.242-1.554.063-.504.144-1.015.242-1.533l.987-4.83h2.856l-2.499 10.416h-3.612l-.945-4.158c-.112-.49-.21-.98-.294-1.47l-.273-1.575h-.084c-.098.56-.185 1.085-.262 1.575-.077.49-.165.98-.263 1.47l-.924 4.158h-3.528l-2.604-10.416zm18.79-1.533c-.518 0-.945-.15-1.281-.451-.336-.301-.504-.689-.504-1.165 0-.476.168-.861.504-1.155.336-.294.763-.441 1.281-.441.532 0 .962.147 1.291.441.329.294.493.679.493 1.155s-.164.864-.493 1.165c-.329.301-.759.451-1.291.451zm-1.533 1.533h3.087v10.416h-3.087v-10.416zm5.35 5.208c0-.854.122-1.617.367-2.289.245-.672.567-1.242.966-1.712.399-.469.861-.829 1.386-1.081.525-.252 1.06-.378 1.606-.378.588 0 1.071.098 1.449.294.378.196.749.462 1.113.798l-.126-1.596v-3.549h3.087v14.721h-2.52l-.21-1.029h-.084c-.364.364-.791.668-1.281.914-.49.245-.987.367-1.491.367-.644 0-1.228-.126-1.753-.378-.525-.252-.973-.612-1.344-1.082-.371-.469-.658-1.039-.861-1.712-.203-.672-.304-1.435-.304-2.289zm3.171-.042c0 1.036.164 1.792.493 2.268.329.476.794.714 1.397.714.336 0 .64-.07.914-.21.273-.14.535-.385.787-.735v-4.263c-.28-.252-.567-.427-.861-.525-.294-.098-.581-.147-.861-.147-.49 0-.924.234-1.302.703s-.567 1.2-.567 2.195zm9.928-2.751h-1.428v-2.289l1.596-.126.357-2.772h2.562v2.772h2.499v2.415h-2.499v4.179c0 .588.122 1.011.367 1.27.245.259.57.389.977.389.168 0 .339-.021.514-.063.175-.042.332-.091.472-.147l.483 2.247c-.28.084-.609.168-.987.252-.378.084-.819.126-1.323.126-.644 0-1.193-.098-1.649-.294-.455-.196-.826-.469-1.113-.819-.287-.35-.497-.773-.63-1.271-.133-.497-.2-1.046-.2-1.649v-4.221zm7.723-6.72h3.087v3.612l-.147 1.869c.392-.35.847-.675 1.365-.977.518-.301 1.134-.451 1.848-.451 1.134 0 1.956.371 2.468 1.113.511.742.767 1.771.767 3.087v6.468h-3.087v-6.069c0-.756-.101-1.274-.304-1.554-.203-.28-.528-.42-.976-.42-.392 0-.728.087-1.008.262-.28.175-.588.423-.924.745v7.035h-3.087v-14.721z"/></g><g sketch:type="MSShapeGroup"><path id="Rectangle-1" d="M69 24h143v280h-143z"/><path stroke="#931E1E" stroke-width="2" stroke-linecap="square" d="M44 26h193v276h-193z"/><path opacity=".3" fill="#f00" d="M44 26h25v276h-25zM212 26h25v276h-25z"/><path d="M69 70.888h25.146v83.316h92.405v-83.316h25.449v198.746h-25.449v-93.617h-92.405v93.617h-25.146v-198.746z" fill="#000"/></g></g></svg>
