<svg width="1024" height="1024" fill="none" xmlns="http://www.w3.org/2000/svg">
<style>
    @media (prefers-color-scheme: dark) {
      path {
        fill: rgb(255, 255, 255);
      }
    }
  </style>
  <path
    fill="#fff"
    d="M0 0h1024v1024H0z"
  />
  <path d="M0 0v1024h1024V0H0Zm335.834 803.917c9.548 0 17.817-.691 24.819-2.074 7.001-1.382 12.672-3.712 17.024-7.001 4.352-3.29 7.795-6.631 10.342-10.023 2.547-3.392 4.403-8.269 5.568-14.63 1.165-6.362 1.856-11.93 2.074-16.704.251-6.837.357-13.678.32-20.519h-60.135V616.512h162.279c5.094 32.883 7.641 62.259 7.641 88.141 0 58.969-13.785 102.195-41.369 129.664-27.571 27.469-70.426 41.203-128.551 41.203v-71.59l-.012-.013Zm212.224 0c9.548 0 17.817-.691 24.819-2.074 7.001-1.382 12.672-3.712 17.024-7.001 4.352-3.29 7.795-6.631 10.342-10.023 2.547-3.392 4.403-8.269 5.568-14.63 1.165-6.362 1.856-11.93 2.074-16.704.251-6.837.357-13.678.32-20.519H548.07V616.512h162.279c5.094 32.883 7.641 62.259 7.641 88.141 0 58.969-13.785 102.195-41.369 129.664-27.571 27.469-70.426 41.203-128.551 41.203v-71.59l-.012-.013Z" fill="#000"/>
</svg>