<svg xmlns="http://www.w3.org/2000/svg" width="975" height="65" viewBox="0 0 975 65"><path fill="#FFF" fill-rule="evenodd" d="M46.824 1.456c-3.234 0-6.468.784-10.388 2.156.294.98.588 2.45.686 3.626C32.908 23.31 28.008 40.264 26.93 45.36c-3.92-15.778-7.644-29.89-9.604-37.142-1.568-5.488-2.352-6.762-4.508-6.762C9.486 1.456 2.724 2.828.862 3.71c6.86 16.856 13.132 41.846 18.914 60.466 3.528 0 7.938-.588 9.408-1.078 1.568-.588 2.254-1.96 2.842-3.92 2.548-8.526 9.212-32.438 10.192-36.456 3.626 14.112 7.84 31.85 10.192 41.454 3.43 0 8.82-.49 10.192-1.078 1.176-.49 1.764-1.47 2.352-3.038 6.37-17.64 13.034-36.652 18.13-53.998.784-2.94-.196-3.92-3.43-4.312-3.038-.294-6.566-.294-7.252-.294-1.96 7.056-5.39 19.6-12.544 44.982C55.252 27.132 50.94 9.884 49.47 4.984c-.49-1.96-1.274-3.528-2.646-3.528zm57.896 59.192l1.568 1.96c2.352.49 8.526.98 17.444.98 7.84 0 12.544-.196 14.014-.49 2.548-1.666 4.508-4.018 5.586-8.918l-.196-.196c-5.194.392-12.74.392-16.562.392-3.234 0-5.488-.196-7.84-.588V35.952h14.014c3.528 0 5.782-1.568 6.664-9.212h-20.678V10.962h8.722c4.312 0 8.232 0 9.8-.588 1.176-1.372 2.548-3.234 3.234-8.624h-23.324c-4.606 0-9.604.686-12.74 1.372.294 4.312.294 7.644.294 12.348v45.178zm60.542 1.666c4.116.784 12.152 1.666 17.346 1.666 16.072 0 27.146-6.86 27.146-19.992 0-6.468-3.92-12.152-12.446-14.504 4.508-2.254 8.82-6.762 8.82-12.838 0-6.468-3.038-15.386-22.05-15.386-6.272 0-16.562 1.274-19.11 1.862.294 4.214.294 7.056.294 12.25v46.942zm13.72-52.528c.882-.196 3.136-.392 4.704-.392 5.096 0 9.212 3.038 9.212 9.212 0 4.704-1.764 7.546-4.214 8.82-4.606-.098-6.958 0-9.702.49V9.786zm0 25.97c1.372-.196 2.646-.196 4.018-.196 7.448 0 11.662 3.528 11.662 9.408 0 6.958-4.508 10.78-11.27 10.78-1.372 0-3.234-.098-4.41-.392v-19.6zm102.464 26.068c0 1.47.784 1.764 2.352 1.764 4.704 0 8.918-.294 11.956-.784-.098-1.96-.294-5.194-.294-11.956V10.962h14.602c2.254-.49 5.194-2.94 5.684-9.212h-35.77c-9.408 0-12.152-.098-13.916-.49-1.078 1.176-2.352 2.94-3.43 6.37-.784 2.548 0 3.332 1.764 3.332h17.052v50.862zm70.146 0c0 1.47.294 1.764 1.96 1.764 6.468 0 9.702-.294 12.348-.784-.098-2.156-.294-5.096-.294-11.76V38.01c0-1.274.294-2.744 1.078-4.214.882-1.568 15.19-22.932 17.542-27.048 1.274-2.254 1.47-3.626-.098-4.214-1.47-.588-5.39-1.176-9.604-1.078-1.764 3.43-9.8 17.836-14.308 24.99-3.92-6.958-8.134-14.798-11.466-20.286-2.548-4.508-3.234-4.704-5.194-4.704-2.744 0-8.428.882-12.25 1.862v.294c6.076 9.016 14.014 21.364 19.404 30.968.686 1.176.882 2.744.882 4.606v22.638zm54.858 0c0 1.47.686 1.764 2.352 1.764 2.94 0 10.29-.294 11.956-.784-.098-1.96-.294-4.704-.294-11.564V10.08c1.176-.196 2.45-.196 3.234-.196 5.684 0 10.878 3.234 10.878 11.466 0 9.408-5.488 11.858-10.29 11.858-.784 0-1.862-.098-2.352-.098 0 3.528 1.96 6.664 3.626 7.448 1.176.588 3.626.686 4.9.686 5.782-.098 18.62-5.292 18.62-19.796 0-15.092-10.78-20.188-26.166-20.188-7.252 0-14.21.784-16.856 1.274.392 4.508.392 8.526.392 13.23v46.06zM501.39.28c-20.188 0-32.046 14.014-32.046 32.438 0 15.386 9.016 31.752 31.654 31.752 20.776 0 31.948-14.896 31.948-32.634 0-17.15-11.172-31.556-31.556-31.556zm-1.078 8.624c11.564 0 17.836 10.682 17.836 23.912 0 14.308-5.88 23.03-16.17 23.03-9.702 0-17.64-8.526-17.64-24.402 0-15.68 7.448-22.54 15.974-22.54zm95.724 46.158c-.882.294-2.94.784-5.39.784-10.682 0-21.266-7.84-21.266-23.814 0-15.092 8.82-22.05 19.992-22.05 4.998 0 9.996 1.176 14.112 2.94 3.528.686 6.664-2.45 6.566-6.86C607.404 3.416 599.858.28 589.47.28c-19.306 0-34.986 12.152-34.986 32.536 0 24.696 17.836 31.654 33.81 31.654 4.802 0 9.898-.98 13.524-2.058 2.842-1.372 6.076-3.528 8.232-5.39V35.168c0-2.058-.686-2.646-2.352-2.646-3.038 0-8.33.98-12.054 1.47.098 2.254.392 4.116.392 7.448v13.622zm53.094-16.66h1.372c2.254 0 4.116.392 6.762 5.684 4.116 8.33 6.37 12.838 8.526 15.582 2.646 3.332 5.194 4.116 9.31 4.116 3.92 0 8.134-.49 8.918-1.078v-.392c-2.548-2.94-5.292-6.958-9.898-15.19-3.136-5.586-6.076-10.78-8.232-12.74 3.822-1.862 11.466-6.272 11.466-15.288 0-12.152-7.448-17.836-24.206-17.836-4.508 0-15.484 1.176-17.836 1.666.196 2.744.196 5.096.196 9.898v32.83c0 8.232-.098 14.014-.294 17.934 2.254 0 8.722-.098 11.564-.392 1.666-.196 2.352-.588 2.352-2.548V38.402zm0-28.812c1.078-.196 2.45-.294 3.626-.294 5.88 0 10.388 3.528 10.388 10.976 0 6.37-3.822 8.82-5.194 9.506-1.372.686-6.566.98-8.82.686V9.59zm91.804 37.632c1.666 4.606 2.94 8.232 4.704 13.132.98 2.744 1.764 3.234 3.43 3.234 2.548 0 10.388-.49 12.642-1.176v-.392c-1.96-4.508-4.312-10.584-8.428-21.07-3.136-8.33-9.996-26.754-14.602-37.632-.588-1.372-1.47-1.862-2.254-1.862-1.078 0-7.742.392-12.054 1.274l.686 1.764C721.138 14 706.34 49.966 701.44 61.922v.392c2.45.686 7.448 1.274 9.996 1.274 1.666 0 2.45-.49 2.94-1.47 1.176-2.94 3.822-10.192 5.586-14.896h20.972zM723 38.108c2.94-8.134 5.586-15.778 7.644-21.56.98 3.038 3.626 9.898 7.742 21.56H723zm59.856 23.716c0 1.47.686 1.764 2.352 1.764 2.94 0 10.29-.294 11.956-.784-.098-1.96-.294-4.704-.294-11.564V10.08c1.176-.196 2.45-.196 3.234-.196 5.684 0 10.878 3.234 10.878 11.466 0 9.408-5.488 11.858-10.29 11.858-.784 0-1.862-.098-2.352-.098 0 3.528 1.96 6.664 3.626 7.448 1.176.588 3.626.686 4.9.686 5.782-.098 18.62-5.292 18.62-19.796 0-15.092-10.78-20.188-26.166-20.188-7.252 0-14.21.784-16.856 1.274.392 4.508.392 8.526.392 13.23v46.06zm78.77-35.378v-19.6c0-4.41-.294-5.39-2.156-5.39-2.254 0-9.114.294-12.152.784.196 1.862.294 5.88.294 12.446v30.968c0 8.232-.098 14.014-.294 17.934 2.058.098 8.232-.098 10.976-.392 2.548-.196 3.332-.588 3.332-2.744V35.56h13.622c4.704 0 7.84-.098 9.8-.294V61.53c0 1.764.784 2.058 2.352 2.058 2.548 0 9.8-.294 11.956-.784-.098-1.96-.294-5.194-.294-12.054V19.096c0-8.134.098-13.916.294-17.64-3.528.098-9.114.196-11.662.392-1.764.098-2.646.49-2.646 2.744v21.854h-23.422zm79.652 35.378c0 1.47.294 1.764 1.96 1.764 6.468 0 9.702-.294 12.348-.784-.098-2.156-.294-5.096-.294-11.76V38.01c0-1.274.294-2.744 1.078-4.214.882-1.568 15.19-22.932 17.542-27.048 1.274-2.254 1.47-3.626-.098-4.214-1.47-.588-5.39-1.176-9.604-1.078-1.764 3.43-9.8 17.836-14.308 24.99-3.92-6.958-8.134-14.798-11.466-20.286-2.548-4.508-3.234-4.704-5.194-4.704-2.744 0-8.428.882-12.25 1.862v.294c6.076 9.016 14.014 21.364 19.404 30.968.686 1.176.882 2.744.882 4.606v22.638z"/></svg>