<?xml version="1.0" encoding="UTF-8" standalone="no"?>
<svg width="600px" height="300px" viewBox="0 0 600 300" version="1.1" xmlns="http://www.w3.org/2000/svg" xmlns:xlink="http://www.w3.org/1999/xlink" xmlns:sketch="http://www.bohemiancoding.com/sketch/ns">
    <title>Artboard 1</title>
    <description>Created with Sketch (http://www.bohemiancoding.com/sketch)</description>
    <defs></defs>
    <g id="Page-1" stroke="none" stroke-width="1" fill="none" fill-rule="evenodd" sketch:type="MSPage">
        <g id="Artboard-1" sketch:type="MSArtboardGroup" fill="#000000">
            <path d="M170.336294,110.621574 L210.275931,110.621574 L210.275931,114.914152 C205.299004,116.282806 200.882048,118.709022 197.02493,122.19287 C193.354447,125.552296 189.497386,132.115519 185.453634,141.882738 C182.094208,149.908032 179.014781,155.755833 176.21526,159.426317 C182.871899,169.006901 188.097594,175.041334 191.8925,177.529797 C195.749618,180.080472 199.793311,181.35579 204.023698,181.35579 C209.871587,181.35579 214.381859,178.587416 217.55465,173.050585 L221.847228,173.050585 C220.540784,178.151935 217.741305,182.288943 213.448706,185.461734 C209.218318,188.572313 204.303677,190.127579 198.704634,190.127579 C186.573376,190.127579 175.904249,184.030936 166.696935,171.837465 C155.809908,184.030936 144.238727,190.127579 131.983045,190.127579 C127.566023,190.189791 123.211277,189.381053 118.918678,187.70134 C114.626079,186.021627 110.800124,183.64207 107.440698,180.562596 C104.081273,177.483123 101.37511,173.812695 99.3221274,169.551201 C97.2691452,165.289708 96.3048801,160.608356 96.4293032,155.507007 C96.4293032,147.730559 98.5444653,141.167335 102.774853,135.817139 C107.005241,130.529154 115.185941,123.810404 127.3172,115.660687 C120.038445,105.520199 116.399122,96.344128 116.399122,88.132199 C116.399122,81.7244059 118.887548,75.9699208 123.864474,70.868571 C128.779189,65.7672212 135.03136,63.2165845 142.621173,63.2165845 C149.402235,63.2165845 155.467774,65.1140094 160.81797,68.9089159 C166.230378,72.7660341 168.936541,77.7428861 168.936541,83.8396212 C168.936541,93.420205 159.978207,102.720697 142.061271,111.741377 C147.660314,119.268978 153.057088,126.64094 158.251755,133.857484 C163.446422,141.074028 168.501037,148.197147 173.415752,155.227056 C176.961813,150.312341 179.761292,145.179962 181.814274,139.829766 C183.867256,134.541781 184.893732,130.373668 184.893732,127.3253 C184.893732,120.170968 180.041301,116.03396 170.336294,114.914152 L170.336294,110.621574 Z M139.448398,108.195334 C151.890714,100.916579 158.111779,93.0469318 158.111779,84.5861565 C158.111779,82.0976932 157.754068,79.8114518 157.038635,77.7273637 C156.323202,75.6432757 155.296726,73.8547195 153.959177,72.3616415 C152.621628,70.8685635 151.019704,69.7176665 149.153356,68.9089159 C147.287009,68.1001654 145.234057,67.6957961 142.99444,67.6957961 C138.452995,67.6957961 134.844777,69.1888517 132.169679,72.1750077 C129.494581,75.0989521 128.157052,78.8004858 128.157052,83.2797198 C128.157052,89.3764549 131.920796,97.6815767 139.448398,108.195334 Z M130.116707,119.48668 C123.646702,123.530433 118.638745,128.196232 115.092685,133.484216 C111.546625,138.834412 109.773621,143.966791 109.773621,148.881506 C109.773621,156.595742 112.853048,163.843283 119.011995,170.624346 C125.170942,177.405408 132.138535,180.795889 139.914982,180.795889 C148.500181,180.795889 156.494249,176.534459 163.897428,168.011472 C157.303,157.995407 151.206356,148.95931 145.607314,140.90291 C140.008271,132.84651 134.844787,125.707838 130.116707,119.48668 Z" id="&amp;" sketch:type="MSShapeGroup"></path>
            <path d="M382.210948,96.1574531 C382.210948,90.2473527 383.952846,84.7572628 387.436695,79.6870188 C390.920544,74.6167748 395.353052,70.5264246 400.734354,67.4158454 C406.115656,64.3052662 411.699062,62.75 417.484739,62.75 C423.954744,62.75 429.351518,64.5385562 433.675223,68.1157222 C437.998928,71.6928882 440.160748,75.9698704 440.160748,80.9467971 C440.160748,84.6794921 439.11872,88.1321831 437.034632,91.3049739 C434.950544,94.4777646 432.757618,96.0641362 430.45579,96.0641362 C429.335981,96.0641362 428.776085,95.473135 428.776085,94.2911149 C428.776085,93.8556338 429.087139,92.8913688 429.709254,91.3982908 C430.70464,88.972039 431.202325,86.5147184 431.202325,84.026255 C431.202325,80.29356 429.678164,77.2607909 426.629796,74.9278565 C423.581429,72.5949221 419.911,71.4284724 415.618401,71.4284724 C408.712916,71.4284724 402.258561,74.2746097 396.255143,79.9669695 C390.251725,85.6593294 387.250061,92.175895 387.250061,99.5168618 C387.250061,102.814076 387.685536,105.598002 388.556498,107.868725 C389.42746,110.139448 390.220646,111.616951 390.936079,112.301278 C391.651512,112.985606 392.662435,113.327764 393.968879,113.327764 C402.554077,113.327764 406.846612,115.81619 406.846612,120.793117 C406.846612,122.037348 406.395585,123.219351 405.493517,124.339159 C404.591449,125.458968 403.269472,126.018864 401.527548,126.018864 C399.598989,126.018864 397.141668,124.743545 394.155512,122.19287 C390.982722,119.455561 387.872189,118.086926 384.823822,118.086926 C380.904492,118.086926 377.187406,120.031009 373.672451,123.919233 C370.157497,127.807457 368.400046,132.426598 368.400046,137.776794 C368.400046,148.166128 373.56353,157.979858 383.890653,167.218279 C394.217775,176.456699 407.064275,181.075839 422.430536,181.075839 C436.988046,181.075839 449.445729,177.452069 459.803957,170.20442 C470.162186,162.95677 475.341222,154.293937 475.341222,144.215661 C475.341222,137.49681 472.790586,131.664561 467.689236,126.71874 C462.587886,121.77292 455.682504,119.300046 446.972882,119.300046 C439.942973,119.300046 433.67525,121.228576 428.169525,125.085695 C422.6638,128.942813 419.910979,133.764138 419.910979,139.549815 C419.910979,143.033664 420.906349,145.895354 422.89712,148.134971 C424.887891,150.374588 426.940842,151.49438 429.056036,151.49438 C431.482288,151.49438 432.695395,150.187956 432.695395,147.575069 L432.602079,146.455267 C432.539867,145.646516 432.508762,145.08662 432.508762,144.775562 C432.508762,142.038253 433.255289,139.783116 434.748367,138.010086 C436.241445,136.237056 438.13887,135.350554 440.440699,135.350554 C442.618104,135.350554 444.515529,136.112635 446.13303,137.636819 C447.750531,139.161002 448.55927,141.291717 448.55927,144.029027 C448.55927,147.948357 447.206188,151.214416 444.499984,153.827302 C441.79378,156.440189 438.325537,157.746612 434.095149,157.746612 C429.056011,157.746612 424.716818,155.958056 421.07744,152.38089 C417.438063,148.803724 415.618401,144.402321 415.618401,139.176548 C415.618401,131.524523 418.82225,124.55693 425.230043,118.27356 C431.637836,111.99019 443.271227,108.848553 460.130566,108.848553 C475.247981,108.848553 486.228161,106.764496 493.071435,102.59632 C499.914709,98.4903552 503.336295,92.2381849 503.336295,83.8396212 C503.336295,78.8626946 501.812134,74.7723443 498.763766,71.5684478 C495.715399,68.3645513 491.858338,66.762627 487.19247,66.762627 C484.890641,66.762627 483.164296,67.089233 482.013381,67.7424546 C480.862467,68.3956762 480.287019,69.4065993 480.287019,70.7752541 C480.287019,71.6462163 480.846914,72.8904293 481.966723,74.5079304 C483.397589,76.5609127 484.113012,78.5516535 484.113012,80.4802125 C484.113012,82.7820411 483.22651,84.8038872 481.45348,86.5458115 C479.68045,88.2877359 477.487524,89.158685 474.874638,89.158685 C471.764059,89.158685 469.400054,88.1633146 467.782553,86.1725439 C466.165052,84.1817733 465.356313,81.8488739 465.356313,79.1737758 C465.356313,74.9433882 467.424817,71.1485385 471.561888,67.789113 C475.698958,64.4296875 480.97131,62.75 487.379104,62.75 C493.973531,62.75 499.463621,65.1606627 503.849538,69.9820604 C508.235454,74.8034581 510.42838,80.6046012 510.42838,87.3856637 C510.42838,93.7934568 508.546508,99.6412579 504.782707,104.929242 C501.018906,110.217227 496.259791,113.949866 490.50522,116.127271 C484.750649,118.304677 476.678817,119.579995 466.289482,119.953265 C476.243336,126.983174 481.220188,136.003718 481.220188,147.015168 C481.220188,155.289309 478.171866,163.283377 472.075131,170.997613 C465.978395,178.71185 458.590881,184.435229 449.912365,188.167924 C441.233849,191.900619 430.642486,193.766939 418.137958,193.766939 C407.99747,193.766939 399.785664,192.6627 393.502294,190.454189 C387.218924,188.245677 381.231149,185.026276 375.538789,180.795889 C369.846429,176.565501 365.367263,171.386464 362.101154,165.258623 C358.835046,159.130783 357.202017,152.552006 357.202017,145.522097 C357.202017,136.936899 359.659337,129.720464 364.574053,123.872575 C369.488768,118.024686 376.767414,114.416468 386.410209,113.047813 C383.610688,107.01329 382.210948,101.383226 382.210948,96.1574531 Z" id="&amp;" sketch:type="MSShapeGroup"></path>
            <path d="M107.847781,218.882 C109.255781,218.486 110.223781,217.298 110.223781,215.516 C110.223781,212.634 107.649781,211.512 104.085781,211.512 C102.413781,211.512 101.115781,211.644 99.8177812,211.886 L99.8177812,226.934 C101.203781,227.066 102.963781,227.11 104.745781,227.11 C108.287781,227.11 111.037781,225.856 111.037781,222.688 C111.037781,220.488 109.717781,219.432 107.847781,218.97 L107.847781,218.882 Z M101.819781,219.938 L104.833781,219.938 C107.407781,219.938 108.991781,220.84 108.991781,222.666 C108.991781,224.514 107.363781,225.35 104.591781,225.35 C103.601781,225.35 102.655781,225.328 101.819781,225.262 L101.819781,219.938 Z M101.819781,213.404 C102.501781,213.272 103.205781,213.25 104.063781,213.25 C106.571781,213.25 108.199781,213.998 108.199781,215.78 C108.199781,217.386 106.879781,218.2 104.833781,218.2 L101.819781,218.2 L101.819781,213.404 Z M119.639781,226.142 C119.815781,226.956 120.387781,227.44 121.377781,227.44 C121.971781,227.44 122.455781,227.264 122.829781,227.044 C123.115781,226.648 123.247781,225.966 123.203781,225.394 C122.983781,225.548 122.587781,225.702 122.169781,225.702 C121.729781,225.702 121.399781,225.526 121.399781,224.888 L121.399781,220.092 C121.399781,217.078 120.057781,215.956 117.439781,215.956 C115.987781,215.956 114.689781,216.308 113.941781,216.748 C113.633781,217.254 113.567781,218.112 113.721781,218.662 C114.645781,218.09 115.833781,217.694 117.087781,217.694 C118.803781,217.694 119.507781,218.464 119.507781,220.29 L119.507781,220.862 C118.869781,220.598 118.033781,220.51 117.307781,220.51 C114.821781,220.51 112.907781,221.566 112.907781,224.14 C112.907781,226.538 114.557781,227.44 116.449781,227.44 C117.901781,227.44 118.913781,226.978 119.551781,226.142 L119.639781,226.142 Z M119.507781,224.558 C118.935781,225.394 117.879781,225.702 116.933781,225.702 C115.745781,225.702 114.821781,225.196 114.821781,224.052 C114.821781,222.886 115.767781,222.072 117.593781,222.072 C118.341781,222.072 118.957781,222.204 119.507781,222.402 L119.507781,224.558 Z M124.523781,224.734 C124.435781,225.284 124.545781,226.252 124.875781,226.736 C125.689781,227.22 126.921781,227.44 128.043781,227.44 C130.353781,227.44 132.179781,226.494 132.179781,224.008 C132.179781,220.268 126.855781,221.126 126.855781,218.86 C126.855781,218.09 127.383781,217.606 128.659781,217.606 C129.737781,217.606 130.815781,217.958 131.673781,218.64 C131.761781,218.09 131.607781,217.166 131.321781,216.726 C130.507781,216.176 129.473781,215.956 128.461781,215.956 C126.173781,215.956 124.919781,217.034 124.919781,219.058 C124.919781,222.688 130.243781,221.764 130.243781,224.25 C130.243781,225.196 129.429781,225.768 127.999781,225.768 C126.833781,225.768 125.381781,225.372 124.523781,224.734 Z M136.975781,220.466 L136.975781,210.83 C136.161781,210.83 135.501781,210.984 135.061781,211.248 L135.061781,226.89 C135.259781,227 135.567781,227.044 136.029781,227.044 C136.491781,227.044 136.777781,227 136.975781,226.89 L136.975781,222.05 L138.339781,222.05 C139.527781,223.876 140.583781,225.35 141.925781,226.89 C142.167781,227 142.739781,227.066 143.311781,227.066 C143.773781,227.066 144.257781,227 144.433781,226.89 C142.629781,224.954 141.419781,223.282 140.055781,221.302 L143.905781,216.55 C143.685781,216.418 143.157781,216.308 142.585781,216.308 C142.277781,216.308 141.925781,216.352 141.771781,216.418 L138.537781,220.466 L136.975781,220.466 Z M154.993781,222.292 C155.169781,221.764 155.257781,221.17 155.257781,220.51 C155.257781,217.848 153.915781,215.956 151.011781,215.956 C147.755781,215.956 145.775781,218.398 145.775781,221.808 C145.775781,225.24 147.733781,227.44 151.275781,227.44 C152.727781,227.44 153.871781,227.066 154.553781,226.648 C154.861781,226.296 155.103781,225.482 155.037781,224.866 C154.179781,225.372 153.057781,225.702 151.715781,225.702 C149.339781,225.702 147.843781,224.69 147.755781,222.292 L154.993781,222.292 Z M147.777781,220.686 C147.931781,218.838 149.053781,217.606 150.923781,217.606 C153.057781,217.606 153.519781,219.234 153.365781,220.686 L147.777781,220.686 Z M159.987781,218.156 L159.899781,218.156 L159.745781,216.22 C159.129781,216.22 158.557781,216.33 158.183781,216.528 L158.183781,226.89 C158.381781,227 158.689781,227.044 159.151781,227.044 C159.613781,227.044 159.899781,227 160.097781,226.89 L160.097781,220.356 C160.647781,218.728 161.593781,217.87 162.935781,217.87 C163.463781,217.87 163.947781,218.002 164.299781,218.2 C164.365781,218.046 164.431781,217.782 164.431781,217.386 C164.431781,216.836 164.321781,216.462 164.145781,216.154 C163.903781,216.022 163.485781,215.956 163.001781,215.956 C161.307781,215.956 160.449781,216.836 159.987781,218.156 Z M170.195781,225.702 C170.041781,224.91 169.799781,224.074 169.579781,223.458 L166.983781,216.44 C166.851781,216.374 166.609781,216.308 166.213781,216.308 C165.685781,216.308 165.289781,216.418 165.047781,216.572 L169.051781,227.176 C169.931781,227.176 170.701781,227.11 171.405781,226.912 L175.277781,216.572 C175.035781,216.418 174.705781,216.308 174.177781,216.308 C173.759781,216.308 173.539781,216.374 173.385781,216.44 L170.855781,223.458 C170.657781,224.03 170.415781,224.91 170.283781,225.702 L170.195781,225.702 Z M177.367781,226.89 C177.565781,227 177.873781,227.044 178.335781,227.044 C178.797781,227.044 179.083781,227 179.281781,226.89 L179.281781,216.506 C179.083781,216.396 178.797781,216.352 178.335781,216.352 C177.873781,216.352 177.565781,216.396 177.367781,216.506 L177.367781,226.89 Z M178.335781,211.358 C177.587781,211.358 177.059781,211.842 177.059781,212.634 C177.059781,213.492 177.499781,213.932 178.335781,213.932 C179.105781,213.932 179.611781,213.47 179.611781,212.612 C179.611781,211.798 179.105781,211.358 178.335781,211.358 Z M186.805781,227.044 C187.113781,226.648 187.267781,225.878 187.223781,225.24 C186.893781,225.504 186.409781,225.68 185.881781,225.68 C185.243781,225.68 184.891781,225.438 184.891781,224.47 L184.891781,210.83 C184.077781,210.83 183.417781,210.984 182.977781,211.248 L182.977781,224.822 C182.977781,226.582 183.725781,227.44 185.221781,227.44 C185.859781,227.44 186.431781,227.286 186.805781,227.044 Z M193.185781,227.044 C193.493781,226.648 193.647781,225.878 193.603781,225.24 C193.273781,225.504 192.789781,225.68 192.261781,225.68 C191.623781,225.68 191.271781,225.438 191.271781,224.47 L191.271781,210.83 C190.457781,210.83 189.797781,210.984 189.357781,211.248 L189.357781,224.822 C189.357781,226.582 190.105781,227.44 191.601781,227.44 C192.239781,227.44 192.811781,227.286 193.185781,227.044 Z M204.163781,222.292 C204.339781,221.764 204.427781,221.17 204.427781,220.51 C204.427781,217.848 203.085781,215.956 200.181781,215.956 C196.925781,215.956 194.945781,218.398 194.945781,221.808 C194.945781,225.24 196.903781,227.44 200.445781,227.44 C201.897781,227.44 203.041781,227.066 203.723781,226.648 C204.031781,226.296 204.273781,225.482 204.207781,224.866 C203.349781,225.372 202.227781,225.702 200.885781,225.702 C198.509781,225.702 197.013781,224.69 196.925781,222.292 L204.163781,222.292 Z M196.947781,220.686 C197.101781,218.838 198.223781,217.606 200.093781,217.606 C202.227781,217.606 202.689781,219.234 202.535781,220.686 L196.947781,220.686 Z" id="Baskerville" sketch:type="MSShapeGroup"></path>
            <path d="M377.847781,218.882 C379.255781,218.486 380.223781,217.298 380.223781,215.516 C380.223781,212.634 377.649781,211.512 374.085781,211.512 C372.413781,211.512 371.115781,211.644 369.817781,211.886 L369.817781,226.934 C371.203781,227.066 372.963781,227.11 374.745781,227.11 C378.287781,227.11 381.037781,225.856 381.037781,222.688 C381.037781,220.488 379.717781,219.432 377.847781,218.97 L377.847781,218.882 Z M371.819781,219.938 L374.833781,219.938 C377.407781,219.938 378.991781,220.84 378.991781,222.666 C378.991781,224.514 377.363781,225.35 374.591781,225.35 C373.601781,225.35 372.655781,225.328 371.819781,225.262 L371.819781,219.938 Z M371.819781,213.404 C372.501781,213.272 373.205781,213.25 374.063781,213.25 C376.571781,213.25 378.199781,213.998 378.199781,215.78 C378.199781,217.386 376.879781,218.2 374.833781,218.2 L371.819781,218.2 L371.819781,213.404 Z M389.639781,226.142 C389.815781,226.956 390.387781,227.44 391.377781,227.44 C391.971781,227.44 392.455781,227.264 392.829781,227.044 C393.115781,226.648 393.247781,225.966 393.203781,225.394 C392.983781,225.548 392.587781,225.702 392.169781,225.702 C391.729781,225.702 391.399781,225.526 391.399781,224.888 L391.399781,220.092 C391.399781,217.078 390.057781,215.956 387.439781,215.956 C385.987781,215.956 384.689781,216.308 383.941781,216.748 C383.633781,217.254 383.567781,218.112 383.721781,218.662 C384.645781,218.09 385.833781,217.694 387.087781,217.694 C388.803781,217.694 389.507781,218.464 389.507781,220.29 L389.507781,220.862 C388.869781,220.598 388.033781,220.51 387.307781,220.51 C384.821781,220.51 382.907781,221.566 382.907781,224.14 C382.907781,226.538 384.557781,227.44 386.449781,227.44 C387.901781,227.44 388.913781,226.978 389.551781,226.142 L389.639781,226.142 Z M389.507781,224.558 C388.935781,225.394 387.879781,225.702 386.933781,225.702 C385.745781,225.702 384.821781,225.196 384.821781,224.052 C384.821781,222.886 385.767781,222.072 387.593781,222.072 C388.341781,222.072 388.957781,222.204 389.507781,222.402 L389.507781,224.558 Z M394.523781,224.734 C394.435781,225.284 394.545781,226.252 394.875781,226.736 C395.689781,227.22 396.921781,227.44 398.043781,227.44 C400.353781,227.44 402.179781,226.494 402.179781,224.008 C402.179781,220.268 396.855781,221.126 396.855781,218.86 C396.855781,218.09 397.383781,217.606 398.659781,217.606 C399.737781,217.606 400.815781,217.958 401.673781,218.64 C401.761781,218.09 401.607781,217.166 401.321781,216.726 C400.507781,216.176 399.473781,215.956 398.461781,215.956 C396.173781,215.956 394.919781,217.034 394.919781,219.058 C394.919781,222.688 400.243781,221.764 400.243781,224.25 C400.243781,225.196 399.429781,225.768 397.999781,225.768 C396.833781,225.768 395.381781,225.372 394.523781,224.734 Z M406.975781,220.466 L406.975781,210.83 C406.161781,210.83 405.501781,210.984 405.061781,211.248 L405.061781,226.89 C405.259781,227 405.567781,227.044 406.029781,227.044 C406.491781,227.044 406.777781,227 406.975781,226.89 L406.975781,222.05 L408.339781,222.05 C409.527781,223.876 410.583781,225.35 411.925781,226.89 C412.167781,227 412.739781,227.066 413.311781,227.066 C413.773781,227.066 414.257781,227 414.433781,226.89 C412.629781,224.954 411.419781,223.282 410.055781,221.302 L413.905781,216.55 C413.685781,216.418 413.157781,216.308 412.585781,216.308 C412.277781,216.308 411.925781,216.352 411.771781,216.418 L408.537781,220.466 L406.975781,220.466 Z M424.993781,222.292 C425.169781,221.764 425.257781,221.17 425.257781,220.51 C425.257781,217.848 423.915781,215.956 421.011781,215.956 C417.755781,215.956 415.775781,218.398 415.775781,221.808 C415.775781,225.24 417.733781,227.44 421.275781,227.44 C422.727781,227.44 423.871781,227.066 424.553781,226.648 C424.861781,226.296 425.103781,225.482 425.037781,224.866 C424.179781,225.372 423.057781,225.702 421.715781,225.702 C419.339781,225.702 417.843781,224.69 417.755781,222.292 L424.993781,222.292 Z M417.777781,220.686 C417.931781,218.838 419.053781,217.606 420.923781,217.606 C423.057781,217.606 423.519781,219.234 423.365781,220.686 L417.777781,220.686 Z M429.987781,218.156 L429.899781,218.156 L429.745781,216.22 C429.129781,216.22 428.557781,216.33 428.183781,216.528 L428.183781,226.89 C428.381781,227 428.689781,227.044 429.151781,227.044 C429.613781,227.044 429.899781,227 430.097781,226.89 L430.097781,220.356 C430.647781,218.728 431.593781,217.87 432.935781,217.87 C433.463781,217.87 433.947781,218.002 434.299781,218.2 C434.365781,218.046 434.431781,217.782 434.431781,217.386 C434.431781,216.836 434.321781,216.462 434.145781,216.154 C433.903781,216.022 433.485781,215.956 433.001781,215.956 C431.307781,215.956 430.449781,216.836 429.987781,218.156 Z M440.195781,225.702 C440.041781,224.91 439.799781,224.074 439.579781,223.458 L436.983781,216.44 C436.851781,216.374 436.609781,216.308 436.213781,216.308 C435.685781,216.308 435.289781,216.418 435.047781,216.572 L439.051781,227.176 C439.931781,227.176 440.701781,227.11 441.405781,226.912 L445.277781,216.572 C445.035781,216.418 444.705781,216.308 444.177781,216.308 C443.759781,216.308 443.539781,216.374 443.385781,216.44 L440.855781,223.458 C440.657781,224.03 440.415781,224.91 440.283781,225.702 L440.195781,225.702 Z M447.367781,226.89 C447.565781,227 447.873781,227.044 448.335781,227.044 C448.797781,227.044 449.083781,227 449.281781,226.89 L449.281781,216.506 C449.083781,216.396 448.797781,216.352 448.335781,216.352 C447.873781,216.352 447.565781,216.396 447.367781,216.506 L447.367781,226.89 Z M448.335781,211.358 C447.587781,211.358 447.059781,211.842 447.059781,212.634 C447.059781,213.492 447.499781,213.932 448.335781,213.932 C449.105781,213.932 449.611781,213.47 449.611781,212.612 C449.611781,211.798 449.105781,211.358 448.335781,211.358 Z M456.805781,227.044 C457.113781,226.648 457.267781,225.878 457.223781,225.24 C456.893781,225.504 456.409781,225.68 455.881781,225.68 C455.243781,225.68 454.891781,225.438 454.891781,224.47 L454.891781,210.83 C454.077781,210.83 453.417781,210.984 452.977781,211.248 L452.977781,224.822 C452.977781,226.582 453.725781,227.44 455.221781,227.44 C455.859781,227.44 456.431781,227.286 456.805781,227.044 Z M463.185781,227.044 C463.493781,226.648 463.647781,225.878 463.603781,225.24 C463.273781,225.504 462.789781,225.68 462.261781,225.68 C461.623781,225.68 461.271781,225.438 461.271781,224.47 L461.271781,210.83 C460.457781,210.83 459.797781,210.984 459.357781,211.248 L459.357781,224.822 C459.357781,226.582 460.105781,227.44 461.601781,227.44 C462.239781,227.44 462.811781,227.286 463.185781,227.044 Z M474.163781,222.292 C474.339781,221.764 474.427781,221.17 474.427781,220.51 C474.427781,217.848 473.085781,215.956 470.181781,215.956 C466.925781,215.956 464.945781,218.398 464.945781,221.808 C464.945781,225.24 466.903781,227.44 470.445781,227.44 C471.897781,227.44 473.041781,227.066 473.723781,226.648 C474.031781,226.296 474.273781,225.482 474.207781,224.866 C473.349781,225.372 472.227781,225.702 470.885781,225.702 C468.509781,225.702 467.013781,224.69 466.925781,222.292 L474.163781,222.292 Z M466.947781,220.686 C467.101781,218.838 468.223781,217.606 470.093781,217.606 C472.227781,217.606 472.689781,219.234 472.535781,220.686 L466.947781,220.686 Z M400.122781,256.912 C400.298781,257.022 400.584781,257.066 401.112781,257.066 C401.596781,257.066 401.904781,257.022 402.102781,256.912 L403.664781,241.798 C403.488781,241.688 403.202781,241.644 402.784781,241.644 C402.344781,241.644 402.036781,241.688 401.860781,241.798 L400.122781,256.912 Z M405.930781,246.396 C405.732781,246.77 405.578781,247.496 405.578781,248.046 L407.052781,248.046 L406.304781,253.81 C406.260781,254.14 406.216781,254.624 406.216781,254.954 C406.216781,256.516 406.898781,257.44 408.790781,257.44 C409.714781,257.44 410.396781,257.22 411.012781,256.78 C411.320781,256.362 411.518781,255.592 411.430781,254.954 C410.814781,255.482 410.154781,255.702 409.472781,255.702 C408.196781,255.702 407.998781,254.976 408.152781,253.722 L408.812781,248.046 L411.804781,248.046 C411.914781,247.848 412.002781,247.518 412.002781,247.078 C412.002781,246.704 411.936781,246.506 411.870781,246.396 L409.010781,246.396 L409.362781,243.426 C408.614781,243.426 408.064781,243.58 407.602781,243.888 L407.272781,246.396 L405.930781,246.396 Z M422.584781,246.968 C421.704781,246.33 420.692781,245.956 419.262781,245.956 C417.370781,245.956 415.742781,246.616 414.620781,248.134 C413.652781,249.454 413.168781,251.214 413.168781,253.084 C413.168781,256.428 414.686781,257.44 416.556781,257.44 C418.206781,257.44 419.306781,256.626 419.878781,255.636 L419.966781,255.636 C419.944781,256.956 420.648781,257.44 421.704781,257.44 C422.320781,257.44 422.716781,257.33 423.046781,257.088 C423.332781,256.78 423.530781,255.988 423.442781,255.438 C423.178781,255.592 422.892781,255.724 422.496781,255.724 C421.924781,255.724 421.594781,255.592 421.726781,254.492 L422.584781,246.968 Z M419.966781,254.074 C419.328781,254.976 418.536781,255.68 417.216781,255.68 C415.676781,255.68 415.038781,254.778 415.038781,252.82 C415.038781,251.522 415.324781,249.938 416.116781,248.904 C416.732781,248.09 417.722781,247.518 419.174781,247.518 C419.812781,247.518 420.340781,247.628 420.736781,247.892 L419.966781,254.074 Z M428.964781,240.852 C428.216781,240.852 427.666781,240.962 427.248781,241.204 L425.532781,254.558 C425.510781,254.8 425.466781,255.24 425.466781,255.482 C425.466781,256.89 426.236781,257.44 427.468781,257.44 C428.106781,257.44 428.612781,257.286 429.008781,257.022 C429.294781,256.714 429.492781,255.922 429.404781,255.372 C429.096781,255.57 428.744781,255.724 428.216781,255.724 C427.622781,255.724 427.270781,255.548 427.402781,254.492 L428.964781,240.852 Z M434.134781,246.484 C433.980781,246.374 433.694781,246.33 433.276781,246.33 C432.836781,246.33 432.594781,246.374 432.396781,246.484 L431.362781,254.558 C431.318781,254.866 431.296781,255.174 431.296781,255.438 C431.296781,256.626 431.714781,257.44 433.210781,257.44 C433.826781,257.44 434.222781,257.308 434.552781,257.088 C434.838781,256.78 435.036781,255.988 434.948781,255.438 C434.684781,255.592 434.398781,255.724 434.002781,255.724 C433.430781,255.724 433.100781,255.592 433.232781,254.492 L434.134781,246.484 Z M433.760781,241.446 C432.990781,241.446 432.506781,241.93 432.506781,242.722 C432.506781,243.514 432.968781,243.91 433.628781,243.91 C434.376781,243.91 434.904781,243.404 434.904781,242.634 C434.904781,241.82 434.420781,241.446 433.760781,241.446 Z M443.814781,256.802 C444.188781,256.384 444.408781,255.592 444.342781,255.02 C443.594781,255.394 442.758781,255.68 441.702781,255.68 C439.678781,255.68 438.534781,254.646 438.534781,252.182 C438.534781,251.082 438.754781,250.136 439.260781,249.3 C439.898781,248.266 440.954781,247.628 442.494781,247.628 C443.462781,247.628 444.144781,247.87 444.870781,248.354 C445.002781,247.76 444.870781,246.968 444.584781,246.55 C444.012781,246.154 443.264781,245.956 442.252781,245.956 C440.074781,245.956 438.578781,246.902 437.676781,248.354 C436.972781,249.52 436.664781,250.972 436.664781,252.446 C436.664781,255.702 438.204781,257.44 441.108781,257.44 C442.252781,257.44 443.132781,257.176 443.814781,256.802 Z" id="Baskerville" sketch:type="MSShapeGroup"></path>
        </g>
    </g>
</svg>