<?xml version="1.0" encoding="UTF-8" standalone="no"?>
<svg width="480px" height="458px" viewBox="0 0 480 458" version="1.1" xmlns="http://www.w3.org/2000/svg" xmlns:xlink="http://www.w3.org/1999/xlink" xmlns:sketch="http://www.bohemiancoding.com/sketch/ns">
    <!-- Generator: Sketch 3.0.4 (8053) - http://www.bohemiancoding.com/sketch -->
    <title>&amp; 2</title>
    <desc>Created with Sketch.</desc>
    <defs></defs>
    <g id="Page-1" stroke="none" stroke-width="1" fill="none" fill-rule="evenodd" sketch:type="MSPage">
        <g id="Home-2" sketch:type="MSArtboardGroup" transform="translate(-730.000000, -20.000000)" fill="#795F9A">
            <g id="Hero" sketch:type="MSLayerGroup">
                <path d="M1080.35971,258.352795 C1077.24539,247.719436 1072.76861,238.313144 1066.92926,230.133637 C1061.0899,221.954129 1053.79081,215.308379 1045.03177,210.196187 C1036.27274,205.083995 1026.24866,202.527938 1014.95923,202.527938 C1010.28775,202.527938 1005.0324,203.345876 999.193046,204.981778 C993.353688,206.617679 987.903702,209.071494 982.842926,212.343297 C977.782149,215.6151 973.597339,219.807035 970.288369,224.919227 C966.9794,230.031419 965.519582,236.063715 965.908873,243.016296 C966.298163,248.741951 968.049944,253.854066 971.164269,258.352795 C974.278593,262.851524 979.144651,265.714309 985.76259,266.941235 C990.823367,267.759186 995.397462,267.350217 999.485012,265.714315 C1003.57256,264.078414 1007.07612,262.340294 1009.9958,260.499905 C1012.91548,258.659516 1015.25119,256.819155 1017.003,254.978765 C1018.7548,253.138376 1020.01998,252.218196 1020.79856,252.218196 C1022.74501,252.627171 1025.37269,255.69444 1028.68165,261.420095 C1031.99062,267.14575 1033.06116,274.302712 1031.89329,282.891194 C1030.33612,293.933529 1025.76203,302.419641 1018.17086,308.349783 C1010.5797,314.279926 1001.52883,317.244953 991.017986,317.244953 C976.224946,317.244953 964.351763,311.008172 955.398082,298.534424 C946.4444,286.060675 941.967626,270.008633 941.967626,250.377816 C941.967626,229.111097 945.860473,211.832147 953.646283,198.540448 C961.432093,185.248749 971.456174,174.615549 983.718825,166.640529 C995.981476,158.66551 1009.99572,152.735456 1025.76199,148.85019 C1041.52826,144.964924 1057.39161,141.999897 1073.35252,139.95502 C1089.31343,137.910143 1104.69017,135.96754 1119.48321,134.12715 C1134.27625,132.286761 1147.12265,129.526219 1158.02278,125.845441 C1166.58717,122.573638 1173.78894,117.972734 1179.6283,112.042591 C1185.46766,106.112449 1188.19265,99.0577294 1187.80336,90.8782221 C1187.41407,85.9705178 1185.66229,81.6763409 1182.54796,77.9955627 C1179.43364,74.3147844 1173.98365,71.8609691 1166.19784,70.634043 C1161.13707,70.2250676 1156.56297,70.7362791 1152.47542,72.1676929 C1148.38787,73.5991067 1144.88431,75.2349836 1141.96463,77.0753727 C1139.04495,78.9157618 1136.61192,80.7561234 1134.66547,82.5965125 C1132.71902,84.4369016 1131.55116,85.3570824 1131.16187,85.3570824 C1129.21542,84.948107 1126.58775,81.8808378 1123.27878,76.1551827 C1119.96981,70.4295277 1118.89927,63.2725662 1120.06715,54.6840836 C1121.23502,46.5045764 1124.05733,39.8588264 1128.53417,34.7466344 C1133.01101,29.6344424 1138.26636,25.851477 1144.30036,23.3976249 C1150.33436,20.9437727 1156.75756,19.8191073 1163.57014,20.023595 C1170.38273,20.2280827 1176.90325,21.7617173 1183.13189,24.6245448 C1193.64274,29.9412245 1200.8445,38.0183668 1204.73741,48.8562138 C1208.63032,59.6940609 1210.3821,70.4295031 1209.99281,81.0628625 C1209.60352,97.8308524 1205.4187,112.860471 1197.43825,126.152171 C1189.45779,139.44387 1178.65514,150.690524 1165.02998,159.892469 C1151.40481,169.094415 1135.63878,176.046892 1117.73141,180.750109 C1099.82405,185.453325 1080.94374,187.804898 1061.08993,187.804898 C1077.44013,202.119036 1089.89724,217.762109 1098.46163,234.734586 C1107.02602,251.707064 1111.30815,270.621891 1111.30815,291.479634 C1111.30815,320.92586 1106.15013,347.202133 1095.83393,370.309241 C1085.51773,393.416349 1071.30884,413.046872 1053.20683,429.201398 C1035.10483,445.355925 1013.88881,457.625002 989.558153,466.008997 C965.227496,474.392992 939.048102,478.380442 911.019185,477.971466 C888.051044,477.562491 865.667175,474.188495 843.866906,467.849377 C822.066638,461.510259 802.699725,451.694997 785.765588,438.403298 C768.83145,425.111599 755.303808,408.241618 745.182254,387.79285 C735.060701,367.344082 730,343.010413 730,314.791113 C730,300.476975 732.043745,286.674264 736.131295,273.382565 C740.218845,260.090865 746.252758,248.026273 754.233213,237.188426 C762.213669,226.350579 772.237749,217.251014 784.305755,209.889457 C796.373761,202.527901 810.38801,197.415785 826.348921,194.552958 L826.348921,192.712578 C813.502334,182.488194 804.159502,171.446025 798.320144,159.585739 C792.480786,147.725454 789.561151,134.842923 789.561151,120.937761 C789.561151,93.9453871 798.806662,72.270018 817.297962,55.9110036 C835.789261,39.5519891 861.579371,31.3726046 894.669065,31.3726046 C905.179909,31.3726046 915.495953,32.5995122 925.617506,35.0533644 C935.739059,37.5072166 944.595286,41.3924242 952.186451,46.7091039 C959.777616,52.0257836 965.90885,58.6715336 970.580336,66.6465531 C975.251822,74.6215727 977.58753,84.1301072 977.58753,95.172442 C977.58753,107.441703 974.181289,118.483872 967.368705,128.299281 C960.556121,138.114689 950.726683,143.02232 937.880096,143.02232 C929.315705,143.02232 922.697865,140.772989 918.026379,136.27426 C913.354893,131.775531 911.019185,128.503778 911.019185,126.458901 C911.019185,126.049925 911.992396,125.027502 913.938849,123.391601 C915.885301,121.755699 918.123688,119.506369 920.654077,116.643541 C923.184465,113.780714 925.422852,110.406717 927.369305,106.521452 C929.315757,102.636186 930.288969,98.0352818 930.288969,92.7186021 C930.288969,80.4493412 926.20148,70.8385644 918.026379,63.8859832 C909.851278,56.9334021 899.924519,53.4571637 888.245803,53.4571637 C868.391987,53.4571637 853.599169,59.6939444 843.866906,72.1676929 C834.134644,84.6414414 829.268585,99.0576067 829.268585,115.416621 C829.268585,145.271823 841.141768,166.947192 864.888489,180.443379 L884.158273,180.443379 C888.82976,180.443379 892.625285,180.852348 895.544964,181.670298 C898.464643,182.488249 900.119103,186.986911 900.508393,195.166418 C900.508393,198.847196 899.632503,202.221192 897.880695,205.288508 C896.128888,208.355823 893.306574,209.889457 889.413669,209.889457 L868.976019,209.889457 C855.350851,211.116383 843.769632,214.694864 834.232014,220.625007 C824.694397,226.55515 816.714061,233.916596 810.290767,242.709566 C803.867474,251.502536 799.196058,261.317798 796.276379,272.155645 C793.3567,282.993492 791.896882,293.933419 791.896882,304.975753 C791.896882,325.015546 795.303123,343.112434 802.115707,359.266961 C808.928291,375.421488 818.368445,389.121957 830.436451,400.36878 C842.504457,411.615602 857.005311,420.203956 873.939448,426.134099 C890.873586,432.064241 909.267287,435.029268 929.121103,435.029268 C950.532081,435.029268 970.677563,431.450787 989.558153,424.293719 C1008.43874,417.13665 1024.98334,407.219146 1039.19245,394.54091 C1053.40155,381.862674 1064.59348,366.62857 1072.76859,348.838142 C1080.94369,331.047713 1085.03118,311.723917 1085.03118,290.866174 C1085.03118,279.823839 1083.47404,268.986155 1080.35971,258.352795 Z" id="&amp;-2" sketch:type="MSShapeGroup"></path>
            </g>
        </g>
    </g>
</svg>