<svg xmlns="http://www.w3.org/2000/svg" width="289" height="167" viewBox="0 0 289 167"><g fill="none" fill-rule="evenodd"><path fill="#252003" d="M288.708 85.43c0 20.07-7.976 33.398-12.85 42.82-2.347 4.536 10.55 26.06 7.898 28.986-2.652 2.927-25.056-9.608-30.488-9.608-9.63 0-19.09 19.162-108.904 19.162C67.797 166.79.02 144.202.02 85.43.02 26.66 56.11.073 144.364.073c86.773 0 144.344 32.487 144.344 85.36z"/><path fill="#FFF" d="M272.38 124.89c9.616-10.72 13.334-25.766 13.334-40.18 0-27.004-15.403-47.543-41.298-61.266C219.006 9.98 183.49 3.07 142.51 3.07 98.77 3.07.677 12.785 3.02 84.278c1.682 51.337 49.468 75.59 140.417 76.512 44.518.452 82.756-2.748 108.55-18.196 3.107-1.86 24.83 11.492 27.498 10.36 2.668-1.132-12.596-21.938-7.102-28.064z"/><path fill="#C93347" d="M52.99 77.66c-.107-6.08-.12-9.95-.184-13.652-.036-2.045-.82-2.64-1.488-2.904-.5-.213-.945-.26-1.387-.252-1.82.03-3.4 1.552-5.81 2.423-3.13 1.16-4.61 1.74-4.57 3.84.03 1.326.32 2.26 1.6 2.902 1.28.64 1.8 1.572 1.84 3.95l.31 17.685c.03 1.493.01 3.428-.35 4.762-.52 2.054-2.45 2.42-2.4 4.796.04 2.266 1.23 3.683 3.83 3.693 1.88-.033 2.98-.384 4.307-.407 1.436-.025 2.385.456 4.264.423 1.714-.03 3.58-.79 3.53-3.66-.066-3.82-3.066-1.5-3.213-9.9l-.083-4.76c-.05-2.88.9-5.49 4.77-5.56 4.2-.08 4.295 5.45 4.37 9.82.034 1.99.06 3.65-.353 5.2-.52 2.05-2.45 2.42-2.407 4.79.04 2.27 1.23 3.68 3.824 3.69 1.88-.04 2.705-.38 4.03-.4 1.438-.03 2.66.45 4.54.41 1.27-.02 3.25-.72 3.2-3.65-.05-2.818-2.43-2.887-2.8-5.31-.316-2.15-.404-4.03-.437-5.91-.037-1.826-.01-3.65-.05-5.75-.13-7.68-4.64-9.65-10.12-9.556-3.7.066-6.33 1.605-8.73 3.25zm47.41 8.517c4.432-2.565 5.532-2.916 5.5-4.74-.056-3.206-5.173-8.148-12.303-8.023-11.054.193-16.575 6.98-16.426 15.546.17 9.728 7.58 15.846 16.7 15.687 8.51-.15 12.44-6.244 12.39-9.505-.01-.884-.24-1.378-.75-1.756-.44-.324-.89-.427-1.27-.42-1.32.023-2.46 1.425-3.28 2.158-1.68 1.523-3.23 1.77-5.38 1.808-3.2.056-5.66-1.45-7.19-3.69l12.04-7.065zm-8.582-6.982c1.99-.035 3.454 1.488 4.486 3.626l-9.85 5.87c-.122-.71-.19-1.38-.202-2.09-.066-3.81 1.752-7.33 5.566-7.39zm35.2 15.308c-.285-.437-5.41-12.07-5.434-13.506-.038-2.21 2.56-2.256 2.516-4.743-.038-2.156-1.707-2.79-3.2-2.764-1.326.023-2.37.484-5.795.544-2.598.045-3.82-.32-5.48-.292-1.436.025-2.637.876-2.602 2.92.04 2.267 1.44 3.237 2.61 3.825 3.123 1.55 7.58 13.026 12.572 23.39-1.926 3.68-2.247 4.295-5.895 4.36-.995.016-1.715-.027-2.433-.014-2.82.05-1.713 3.237-2.127 4.847-.26.945-.804 1.452-.783 2.668.04 2.32 3.198 2.653 4.856 2.624 6.798-.12 9.247-5.524 17.928-24.53 4.21-9.195 7.29-16.602 7.26-18.426-.03-1.713-1.03-2.083-2.52-2.057-1.49.02-3.3.55-4.35.57-1.21.02-2.55-.46-3.6-.44-1.49.02-2.07 1.53-2.05 2.69.04 2.15 3.02 1.82 3.07 4.81.04 2.1-1.16 6.1-4.52 13.51zm44.693-19.8c-.03-1.878-.82-3.19-2.76-3.157-1.66.03-3.07 1.435-5.49 2.307-3.13 1.16-5.05 1.857-5.02 3.958.03 1.33.32 2.38 1.6 2.91 1.28.53 1.79 1.13 1.83 3.51l.37 20.9c.06 3.1-.92 4-2.47 4.03-1.16.02-2.1-.29-3.04-.28-.99.02-2.15.43-2.11 2.25.06 3.32 5.13 5.39 9.27 5.31 8.46-.15 8.48-5.12 8.39-10.48l-.54-31.23zm-5.24-5.823c1.88-.033 5.59-2.973 5.56-4.797-.03-2.1-4.18-5.068-5.78-5.04-1.6.028-5.64 3.14-5.6 5.24.03 1.823 3.84 4.632 5.83 4.597zm23.36 33.484c4.31-.076 7.21-2.172 7.9-3.566.05 2.542.89 3.412 3.27 3.37 1.27-.02 1.71-.25 3.81-.287 1.83-.03 2.71.12 3.38.11.67-.01 1.82-.14 2.34-2.08.16-.55.21-1.05.2-1.44-.06-3.76-3.06-1.11-3.21-10.06l-.45-26.03c-.03-1.54-.06-3.04-1.4-3.84-.39-.21-1-.37-1.55-.36-1.33.03-2.14 1.04-3.782 1.67-1.87.7-6.23 1-6.17 4.48.05 2.82 3.02 2.22 3.07 4.81l.073 4.37c-1.34-.69-3.95-1.42-6.49-1.38-8.346.15-13.824 6.27-13.655 15.94.15 8.62 4.457 14.46 12.69 14.32zm-2.31-15.496c-.08-4.643 1.61-9.26 6.42-9.345 3.43-.06 3.48 2.925 3.53 5.854l.16 8.733c.04 1.99-1.32 3.45-3.59 3.49-3.87.068-6.42-3.426-6.51-8.732zm38.02-13.103c-.03-1.88-.83-3.192-2.76-3.16-1.65.03-3.07 1.437-5.48 2.31-3.13 1.16-5.05 1.856-5.02 3.956.03 1.33.32 2.38 1.6 2.91 1.28.53 1.79 1.13 1.83 3.51l.37 20.9c.06 3.1-.92 4-2.47 4.03-1.16.02-2.11-.29-3.05-.28-.99.02-2.15.43-2.11 2.25.06 3.32 5.13 5.39 9.27 5.31 8.46-.14 8.48-5.12 8.39-10.48l-.54-31.23zm-5.24-5.825c1.88-.03 5.59-2.97 5.56-4.79-.03-2.1-4.18-5.07-5.78-5.04-1.6.03-5.64 3.14-5.6 5.24.04 1.83 3.84 4.63 5.83 4.6zm16.83 33.6c2.77-.05 6.46-3.65 6.42-6.08-.04-2.48-2.52-4.87-4.95-4.83-2.26.04-6.57 3.32-6.53 6.09.04 2.32 2.69 4.876 5.06 4.83zm5.32-43.99c-5.47.1-7.24 6.15-7.17 10.41.07 4.04 1.62 7.27 1.7 11.97.02 1.05-.12 2.38-.11 3.27.03 1.826.49 2.758 2.26 2.727 1.94-.034 2.52-1.592 3.24-4.535 1.75-7.44 5.65-12.21 5.55-18.12-.05-3.097-1.37-5.784-5.46-5.71z"/></g></svg>