<svg width="2048" height="2048" viewBox="0 0 2048 2048" xmlns="http://www.w3.org/2000/svg"><path d="M1280 1628q-42-241-140-498h-2l-2 1q-16 6-43 16.5t-101 49-137 82T724 1393t-103 148l-15-11q184 150 418 150 132 0 256-52zm-185-607q-21-49-53-111-311 93-673 93-1 7-1 21 0 124 44 236.5T536 1462q50-89 123.5-166.5T802 1171t130.5-81 99.5-48l37-13q4-1 13-3.5t13-4.5zM988 809Q868 596 744 431q-138 65-234 186T382 889q302 0 606-80zm684 319q-210-60-409-29 87 239 128 469 111-75 185-189.5t96-250.5zM867 387q-1 0-2 1 1-1 2-1zm590 145q-185-164-433-164-76 0-155 19 131 170 246 382 69-26 130-60.5t96.5-61.5 65.5-57 37.5-40.5zm223 485q-3-232-149-410l-1 1q-9 12-19 24.5t-43.5 44.5-71 60.5-100 65T1165 867q25 53 44 95 2 6 6.5 17.5t7.5 16.5q36-5 74.5-7t73.5-2 69 1.5 64 4 56.5 5.5 48 6.5 36.5 6 25 4.5zm112 7q0 209-103 385.5T1409.5 1689 1024 1792t-385.5-103T359 1409.5 256 1024t103-385.5T638.5 359 1024 256t385.5 103T1689 638.5t103 385.5z" fill="#fff"/></svg>