<svg width="80" height="80" viewBox="0 0 80 80" xmlns="http://www.w3.org/2000/svg"><path d="M0 0v80h80V0H0zm26.237 62.806c.746 0 1.392-.054 1.94-.162.546-.107.99-.29 1.33-.546.338-.257.608-.518.807-.784.2-.265.344-.646.435-1.143.09-.49.14-.93.16-1.3.01-.37.02-.9.02-1.6h-4.7v-9.1h12.68c.4 2.57.59 4.87.59 6.89 0 4.61-1.08 7.99-3.23 10.13-2.16 2.15-5.51 3.22-10.05 3.22v-5.6zm16.58 0c.746 0 1.392-.054 1.94-.162.546-.107.99-.29 1.33-.546.34-.257.608-.518.807-.784.2-.265.344-.646.435-1.143.09-.49.14-.93.16-1.3.01-.37.02-.9.02-1.6h-4.7v-9.1h12.68c.39 2.57.59 4.87.59 6.89 0 4.61-1.08 7.99-3.23 10.13-2.16 2.15-5.51 3.22-10.05 3.22v-5.6z" fill="#000000"/></svg>
