<?xml version="1.0" encoding="UTF-8" standalone="no"?>
<svg width="80px" height="80px" viewBox="0 0 80 80" version="1.1" xmlns="http://www.w3.org/2000/svg" xmlns:xlink="http://www.w3.org/1999/xlink" xmlns:sketch="http://www.bohemiancoding.com/sketch/ns">
    <!-- Generator: Sketch 3.0 (7573) - http://www.bohemiancoding.com/sketch -->
    <title>Logo</title>
    <description>Created with Sketch.</description>
    <defs></defs>
    <g id="Page-1" stroke="none" stroke-width="1" fill="none" fill-rule="evenodd" sketch:type="MSPage">
        <g id="Mockup" sketch:type="MSArtboardGroup" transform="translate(-250.000000, -40.000000)" fill="#333333">
            <path d="M250,40 L250,120 L330,120 L330,40 L250,40 Z M276.236932,102.805966 C276.982674,102.805966 277.628975,102.752108 278.175852,102.644389 C278.72273,102.536671 279.166026,102.354381 279.505753,102.097514 C279.84548,101.840647 280.114772,101.579641 280.313636,101.314489 C280.512501,101.049336 280.657504,100.668184 280.748651,100.171023 C280.839797,99.6738612 280.893655,99.2388513 280.910227,98.8659801 C280.926799,98.4931089 280.935085,97.9586683 280.935085,97.262642 L276.236932,97.262642 L276.236932,88.1646307 L288.914489,88.1646307 C289.312218,90.7332988 289.51108,93.0284937 289.51108,95.0502841 C289.51108,99.6573147 288.433912,103.03382 286.279545,105.179901 C284.125179,107.325981 280.777674,108.399006 276.236932,108.399006 L276.236932,102.805966 Z M292.817187,102.805966 C293.56293,102.805966 294.20923,102.752108 294.756108,102.644389 C295.302986,102.536671 295.746281,102.354381 296.086009,102.097514 C296.425736,101.840647 296.695027,101.579641 296.893892,101.314489 C297.092757,101.049336 297.23776,100.668184 297.328906,100.171023 C297.420053,99.6738612 297.473911,99.2388513 297.490483,98.8659801 C297.507055,98.4931089 297.515341,97.9586683 297.515341,97.262642 L292.817187,97.262642 L292.817187,88.1646307 L305.494744,88.1646307 C305.892474,90.7332988 306.091335,93.0284937 306.091335,95.0502841 C306.091335,99.6573147 305.014168,103.03382 302.859801,105.179901 C300.705434,107.325981 297.35793,108.399006 292.817187,108.399006 L292.817187,102.805966 Z" id="Logo" sketch:type="MSShapeGroup"></path>
        </g>
    </g>
</svg>