<svg width="59" height="37" viewBox="0 0 59 37" xmlns="http://www.w3.org/2000/svg"><path d="M58.068 11.276c0 .708-.32 1.203-.963 1.485-.642.29-1.677.43-3.105.43-2.364 0-6.174-.44-11.43-1.33 1.128.66 1.914 1.26 2.358 1.78.444.53.666 1.11.666 1.75 0 .29-.246.71-.738 1.26s-.99.95-1.494 1.19c.744 0 1.26.12 1.548.37.288.25.432.64.432 1.18 0 .67-.432 1.28-1.296 1.82-.864.54-1.8.81-2.808.81-.48 0-.876-.04-1.188-.14-.036.26-.3.61-.792 1.07-.492.47-.924.76-1.296.88 0 .65-.273 1.24-.82 1.77-.545.528-1.16.79-1.844.79-1.128 0-2.328-.29-3.6-.862-.132.26-.372.393-.72.393-.168 0-.438-.07-.81-.215-.408-.17-.918-.25-1.53-.25-.54 0-1.494.104-2.862.31-2.076.3-3.75.45-5.022.45h-1.008c-.048.71-.2 1.264-.46 1.666-.257.4-.584.605-.98.605-.18 0-.45-.05-.81-.15-.264-.07-.558-.11-.882-.11-.972 0-1.94.208-2.907.62-.966.416-1.794.968-2.484 1.658s-1.035 1.29-1.035 1.79c0 .12.03.328.09.616s.09.49.09.61c0 .79-.26 1.414-.783 1.87-.522.46-1.257.684-2.205.684-.684 0-1.233-.2-1.647-.61-.414-.41-.62-.935-.62-1.583 0-.744.308-1.39.926-1.93.61-.54 1.31-.81 2.09-.81 0-.562-.15-1.37-.43-2.41-.29-1.01-.43-1.79-.43-2.34 0-.72.13-1.45.4-2.2s.62-1.36 1.04-1.84c-.52-.29-1.22-1.04-2.11-2.27-.65-.884-1.15-1.48-1.49-1.77-.34-.293-.66-.47-.98-.53-.45.576-1.08.864-1.87.864-.61 0-1.14-.23-1.59-.69-.45-.46-.68-1.01-.68-1.65 0-.633.22-1.182.67-1.644.45-.46.98-.69 1.59-.69.79 0 1.41.29 1.87.86.47-.07 1.232-.5 2.3-1.295 1.01-.74 1.803-1.25 2.385-1.52.58-.27 1.15-.433 1.71-.493-.575-1.43-.863-2.81-.863-4.16 0-1.13.13-1.89.393-2.3-.55-.12-1.01-.44-1.37-.955-.36-.517-.54-1.087-.54-1.71 0-.71.2-1.27.607-1.684.41-.432.94-.634 1.6-.634.732 0 1.37.3 1.917.905.55.61.82 1.3.82 2.08 0 .734-.19 1.334-.575 1.8.034.66 1.063 1.78 3.085 3.36 2.02 1.58 3.88 2.624 5.57 3.14 1.334-.456 2.594-.996 3.78-1.62 1.19-.62 2.59-1.52 4.196-2.7 1.064-.78 1.83-1.27 2.282-1.476.46-.2.89-.304 1.3-.304 3.493 0 6.517.136 9.073.406s5.45.874 8.66 1.81c1.91.55 3.5 1.04 4.76 1.467 1.27.42 2.06.77 2.37 1.05.31.27.47.7.47 1.29zm-13.446 3.96c0-.504-.39-1.05-1.17-1.638-.78-.588-1.806-1.134-3.078-1.638-.444.552-1.044 1.128-1.8 1.728.264 1.056.96 1.584 2.088 1.584.24 0 .36.12.36.36 0 .312-.12.468-.36.468-2.172 0-3.708.072-4.608.216.96.312 2.05.582 3.267.81 1.22.228 2.17.342 2.86.342.6-.324 1.16-.726 1.68-1.206s.78-.822.78-1.026zm12.474-3.96c0-.48-.312-.81-.936-.99-.108-.036-.48-.156-1.116-.36-4.332-1.416-7.356-2.3-9.072-2.655-1.716-.35-3.66-.61-5.832-.79-2.172-.17-4.638-.26-7.398-.26-.312 0-.66.1-1.044.28-.384.19-1.05.63-1.998 1.34-1.692 1.27-3.177 2.23-4.455 2.88-1.278.65-2.625 1.19-4.04 1.62-.865.27-1.606 1.08-2.224 2.44-.61 1.36-.92 2.94-.92 4.74 0 .78.28 1.41.82 1.88.55.48 1.28.72 2.21.72 1.07 0 2.17-.27 3.3-.83 1.13-.55 2.48-1.54 4.05-2.97.71-.63 1.13-.95 1.26-.95 1.06 1.08 2.31 1.92 3.76 2.51 1.45.59 3 .88 4.63.88.35 0 .65-.26.89-.77.25-.51.37-1.05.37-1.62 0-.37-.06-.55-.18-.55-.91 0-2.03-.25-3.35-.74s-1.99-.933-1.99-1.33c0-.193.07-.39.2-.595.36-.565.62-1.22.78-1.97.156-.75.234-1.95.234-3.593 0-.14.17-.213.506-.213.31 0 .47.073.47.217 0 1.706-.11 3.116-.327 4.23.54-.274 1.2-.775 1.98-1.5s1.366-1.38 1.762-1.954c2.854.54 5.66.99 8.42 1.34 2.76.357 4.82.534 6.178.534 1.13 0 1.93-.07 2.398-.21.47-.14.706-.38.706-.73zm-19.89 11.016c0-.552-.18-.828-.54-.828-.54 0-1.416-.123-2.628-.37-1.212-.245-1.968-.464-2.268-.656-.156-.108-.312-.162-.468-.162-.336 0-.504.168-.504.504 0 .528.705 1.05 2.115 1.566 1.41.516 2.66.774 3.753.774.36 0 .54-.276.54-.828zm-.648 2.052c0-.336-.264-.504-.792-.504-.576 0-1.335-.144-2.277-.432-.95-.288-1.66-.6-2.16-.936-.11-.072-.21-.108-.29-.108-.27 0-.4.132-.4.396 0 .42.5.945 1.51 1.575s1.95.945 2.84.945c1.03 0 1.54-.312 1.54-.936zm-20.214-9.468c-1.032-2.16-1.716-4.314-2.052-6.462-1.62-1.38-2.448-2.352-2.484-2.916-.144.468-.216 1.08-.216 1.836 0 .672.153 1.56.46 2.664.305 1.104.656 2.082 1.052 2.934-1.044.072-2.02.282-2.925.63-.91.348-1.98.984-3.22 1.908-.65.492-1.12.81-1.42.954.3.06.61.237.94.53.33.295.83.904 1.52 1.828 1.25 1.692 2.31 2.754 3.18 3.186-.58.6-1.06 1.305-1.44 2.115-.39.81-.58 1.57-.58 2.277 0 .54.14 1.278.43 2.214.24.744.38 1.326.43 1.746.45-.612 1.16-1.212 2.12-1.8-.27-1.008-.4-1.728-.4-2.16 0-.876.294-1.845.89-2.907.592-1.062 1.27-1.857 2.023-2.385-.863-.324-1.673-.804-2.43-1.44-.755-.636-1.637-1.632-2.645-2.988 2.17-1.176 4.42-1.764 6.73-1.764z" fill="#c93347" fill-rule="evenodd"/></svg>
