<svg xmlns="http://www.w3.org/2000/svg" width="167" height="184" viewBox="0 0 167 184"><circle fill="#E5E4F2" cx="83.021" cy="95.491" r="83.5"/><path fill="#4E4E5C" d="M47.208 155.34S48.315 29.18 49.42 24.2c1.107-4.98 2.57-15.96 27.114-18.26 17.706-1.66 23.24 8.3 23.793 15.493.323 4.202 4.98 121.18 4.98 121.18l9.405-2.214S110.84 19.77 109.18 15.342c-1.66-4.427-7.168-20.33-43.713-13.833C40.567 5.94 39.46 18.667 37.8 25.86c-.905 3.925-2.212 128.924-2.212 128.924l11.62.555zm-7.708-9.962l71.26-15.44 1.186-6.693-73.038 14.846z"/><path fill="#928D96" d="M64.956 1.608c-24.4 4.51-25.507 17.108-27.155 24.25-.902 3.927-2.21 128.926-2.21 128.926l.58.03 6.06-5.01S40.57 36.372 43.335 24.752C45.84 14.23 48.8 7.337 64.954 1.608z"/><path fill="#4E4E5C" d="M102.753 101.665c2.214-4.98 12.174-7.746 18.813-5.533 6.64 2.214 18.26 28.773 8.3 47.033 0 0-11.62 9.406-19.92 3.873 0 0-21.424-13.353-7.193-45.373z"/><path fill="#928D96" d="M48.868 138.185l58.1-12.172-.24-2.26L47.26 135.84z"/><path fill="#4E4E5C" d="M99.844 125.116s2.797-.625 3.672 1.688l1.484-.25v-3.688l-5.156 2.25zM111.19 136.5l45.037 15.3c3.23 1.324 5.445 4.646 1.39 6.492l-73.155 25.514c-6.82.86-10.022-.895-14.375-3.713l-35.31-26.42L111.19 136.5z"/><path fill="#928D96" d="M104.253 18.273s-3.378-16.502-30.97-11.96c1.037-.143 2.12-.268 3.25-.374 17.707-1.66 23.24 8.3 23.794 15.49.323 4.2 4.48 116.465 4.48 116.465l5.34 1.98-5.894-121.605z"/><path fill="#4E4E5C" d="M45.548 73.524l63.044-9.776-.396-27.024-62.525 8.13zM19.54 119.372c2.215-4.98 12.174-7.746 18.814-5.533 6.64 2.21 18.26 28.77 8.3 47.03 0 0-11.62 9.405-19.92 3.872 0 0-21.423-13.353-7.193-45.373z"/></svg>