<svg width="600" height="300" viewBox="0 0 600 300" xmlns="http://www.w3.org/2000/svg"><title>Artboard 1</title><path d="M170.336 110.622h39.94v4.292c-4.977 1.37-9.394 3.795-13.25 7.28-3.672 3.358-7.53 9.922-11.572 19.69-3.36 8.024-6.44 13.872-9.24 17.542 6.658 9.58 11.884 15.615 15.68 18.104 3.856 2.55 7.9 3.826 12.13 3.826 5.848 0 10.358-2.77 13.53-8.305h4.293c-1.306 5.108-4.106 9.24-8.398 12.418-4.238 3.11-9.15 4.666-14.75 4.666-12.13 0-22.8-6.097-32.01-18.29-10.886 12.193-22.457 18.29-34.713 18.29-4.417.06-8.77-.747-13.064-2.427-4.294-1.678-8.12-4.058-11.48-7.137-3.36-3.08-6.065-6.75-8.118-11.013-2.055-4.26-3.02-8.942-2.895-14.043 0-7.775 2.115-14.34 6.346-19.69 4.23-5.287 12.41-12.006 24.543-20.155-7.28-10.14-10.92-19.318-10.92-27.53 0-6.408 2.49-12.16 7.465-17.263 4.913-5.103 11.165-7.653 18.755-7.653 6.783 0 12.85 1.898 18.2 5.693 5.41 3.856 8.12 8.833 8.12 14.93 0 9.58-8.96 18.88-26.878 27.9 5.6 7.53 10.997 14.9 16.192 22.117 5.193 7.215 10.25 14.34 15.163 21.37 3.547-4.917 6.346-10.05 8.4-15.4 2.053-5.287 3.08-9.455 3.08-12.504 0-7.153-4.853-11.29-14.558-12.41v-4.292zm-30.888-2.427c12.443-7.278 18.664-15.148 18.664-23.61 0-2.487-.358-4.774-1.073-6.858-.72-2.084-1.75-3.872-3.08-5.365-1.34-1.493-2.94-2.644-4.81-3.453-1.87-.81-3.92-1.22-6.16-1.22-4.54 0-8.15 1.493-10.826 4.48-2.676 2.923-4.014 6.624-4.014 11.104 0 6.095 3.765 14.4 11.29 24.914zm-9.33 11.292c-6.47 4.043-11.48 8.71-15.025 13.997-3.546 5.35-5.32 10.483-5.32 15.398 0 7.714 3.08 14.96 9.24 21.742 6.158 6.78 13.126 10.172 20.902 10.172 8.585 0 16.58-4.262 23.982-12.785-6.594-10.01-12.69-19.05-18.29-27.1-5.6-8.057-10.762-15.196-15.49-21.417zm252.092-23.33c0-5.91 1.743-11.4 5.227-16.47 3.484-5.07 7.916-9.16 13.297-12.27 5.382-3.112 10.965-4.667 16.75-4.667 6.47 0 11.868 1.79 16.19 5.366 4.325 3.577 6.487 7.854 6.487 12.83 0 3.733-1.04 7.186-3.12 10.36-2.083 3.172-4.276 4.758-6.58 4.758-1.12 0-1.68-.59-1.68-1.773 0-.43.31-1.4.935-2.89.996-2.422 1.493-4.88 1.493-7.37 0-3.73-1.524-6.763-4.572-9.1-3.05-2.33-6.72-3.5-11.01-3.5-6.906 0-13.36 2.85-19.364 8.54-6.003 5.69-9.005 12.21-9.005 19.55 0 3.3.437 6.08 1.307 8.35.87 2.27 1.667 3.75 2.38 4.436.718.686 1.728 1.028 3.035 1.028 8.582 0 12.875 2.49 12.875 7.466 0 1.243-.45 2.425-1.352 3.545-.902 1.12-2.224 1.68-3.965 1.68-1.93 0-4.385-1.274-7.37-3.825-3.174-2.738-6.285-4.107-9.333-4.107-3.92 0-7.638 1.944-11.153 5.83-3.514 3.89-5.27 8.51-5.27 13.86 0 10.39 5.163 20.202 15.49 29.44 10.327 9.24 23.173 13.86 38.54 13.86 14.557 0 27.015-3.626 37.373-10.874 10.358-7.25 15.537-15.91 15.537-25.99 0-6.72-2.55-12.55-7.65-17.498-5.1-4.947-12.006-7.42-20.716-7.42-7.03 0-13.297 1.93-18.802 5.786-5.505 3.856-8.26 8.677-8.26 14.463 0 3.483.997 6.344 2.988 8.584 1.99 2.24 4.044 3.36 6.16 3.36 2.425 0 3.638-1.307 3.638-3.92l-.093-1.12c-.06-.808-.092-1.368-.092-1.68 0-2.737.744-4.992 2.237-6.765 1.493-1.774 3.39-2.66 5.693-2.66 2.178 0 4.076.762 5.693 2.286 1.62 1.524 2.427 3.655 2.427 6.392 0 3.917-1.356 7.183-4.06 9.796-2.708 2.613-6.176 3.92-10.407 3.92-5.04 0-9.38-1.79-13.02-5.366-3.64-3.576-5.46-7.98-5.46-13.203 0-7.652 3.206-14.62 9.614-20.903 6.407-6.284 18.04-9.425 34.9-9.425 15.117 0 26.097-2.088 32.94-6.256 6.844-4.103 10.265-10.355 10.265-18.753 0-4.976-1.526-9.067-4.574-12.27-3.05-3.204-6.904-4.806-11.57-4.806-2.3 0-4.027.327-5.18.98-1.15.654-1.724 1.665-1.724 3.033 0 .87.56 2.116 1.68 3.734 1.43 2.053 2.146 4.044 2.146 5.972 0 2.3-.885 4.323-2.66 6.065-1.772 1.742-3.964 2.613-6.577 2.613-3.11 0-5.475-.995-7.09-2.985-1.62-1.99-2.428-4.324-2.428-7 0-4.23 2.07-8.024 6.205-11.384 4.136-3.36 9.41-5.04 15.816-5.04 6.595 0 12.085 2.41 16.47 7.232 4.386 4.82 6.58 10.623 6.58 17.404 0 6.407-1.88 12.255-5.646 17.543-3.763 5.285-8.52 9.02-14.277 11.195-5.754 2.178-13.826 3.453-24.216 3.826 9.954 7.03 14.93 16.05 14.93 27.063 0 8.274-3.047 16.268-9.144 23.983-6.097 7.715-13.484 13.438-22.163 17.17-8.68 3.734-19.27 5.6-31.776 5.6-10.14 0-18.35-1.104-24.635-3.313-6.285-2.21-12.27-5.43-17.965-9.66-5.694-4.23-10.173-9.41-13.44-15.536-3.265-6.13-4.898-12.707-4.898-19.737 0-8.583 2.457-15.8 7.372-21.65 4.913-5.845 12.19-9.454 21.834-10.822-2.8-6.036-4.2-11.666-4.2-16.89zM107.848 218.882c1.408-.396 2.376-1.584 2.376-3.366 0-2.882-2.574-4.004-6.138-4.004-1.672 0-2.97.132-4.268.374v15.048c1.386.132 3.146.176 4.928.176 3.542 0 6.292-1.254 6.292-4.422 0-2.2-1.32-3.256-3.19-3.718v-.088zm-6.028 1.056h3.014c2.574 0 4.158.902 4.158 2.728 0 1.848-1.628 2.684-4.4 2.684-.99 0-1.936-.022-2.772-.088v-5.324zm0-6.534c.682-.132 1.386-.154 2.244-.154 2.508 0 4.136.748 4.136 2.53 0 1.606-1.32 2.42-3.366 2.42h-3.014v-4.796zm17.82 12.738c.176.814.748 1.298 1.738 1.298.594 0 1.078-.176 1.452-.396.286-.396.418-1.078.374-1.65-.22.154-.616.308-1.034.308-.44 0-.77-.176-.77-.814v-4.796c0-3.014-1.342-4.136-3.96-4.136-1.452 0-2.75.352-3.498.792-.308.506-.374 1.364-.22 1.914.924-.572 2.112-.968 3.366-.968 1.716 0 2.42.77 2.42 2.596v.572c-.638-.264-1.474-.352-2.2-.352-2.486 0-4.4 1.056-4.4 3.63 0 2.398 1.65 3.3 3.542 3.3 1.452 0 2.464-.462 3.102-1.298h.088zm-.132-1.584c-.572.836-1.628 1.144-2.574 1.144-1.188 0-2.112-.506-2.112-1.65 0-1.166.946-1.98 2.772-1.98.748 0 1.364.132 1.914.33v2.156zm5.016.176c-.088.55.022 1.518.352 2.002.814.484 2.046.704 3.168.704 2.31 0 4.136-.946 4.136-3.432 0-3.74-5.324-2.882-5.324-5.148 0-.77.528-1.254 1.804-1.254 1.078 0 2.156.352 3.014 1.034.088-.55-.066-1.474-.352-1.914-.814-.55-1.848-.77-2.86-.77-2.288 0-3.542 1.078-3.542 3.102 0 3.63 5.324 2.706 5.324 5.192 0 .946-.814 1.518-2.244 1.518-1.166 0-2.618-.396-3.476-1.034zm12.452-4.268v-9.636c-.814 0-1.474.154-1.914.418v15.642c.198.11.506.154.968.154.462 0 .748-.044.946-.154v-4.84h1.364c1.188 1.826 2.244 3.3 3.586 4.84.242.11.814.176 1.386.176.462 0 .946-.066 1.122-.176-1.804-1.936-3.014-3.608-4.378-5.588l3.85-4.752c-.22-.132-.748-.242-1.32-.242-.308 0-.66.044-.814.11l-3.234 4.048h-1.562zm18.018 1.826c.176-.528.264-1.122.264-1.782 0-2.662-1.342-4.554-4.246-4.554-3.256 0-5.236 2.442-5.236 5.852 0 3.432 1.958 5.632 5.5 5.632 1.452 0 2.596-.374 3.278-.792.308-.352.55-1.166.484-1.782-.858.506-1.98.836-3.322.836-2.376 0-3.872-1.012-3.96-3.41h7.238zm-7.216-1.606c.154-1.848 1.276-3.08 3.146-3.08 2.134 0 2.596 1.628 2.442 3.08h-5.588zm12.21-2.53h-.088l-.154-1.936c-.616 0-1.188.11-1.562.308v10.362c.198.11.506.154.968.154.462 0 .748-.044.946-.154v-6.534c.55-1.628 1.496-2.486 2.838-2.486.528 0 1.012.132 1.364.33.066-.154.132-.418.132-.814 0-.55-.11-.924-.286-1.232-.242-.132-.66-.198-1.144-.198-1.694 0-2.552.88-3.014 2.2zm10.208 7.546c-.154-.792-.396-1.628-.616-2.244l-2.596-7.018c-.132-.066-.374-.132-.77-.132-.528 0-.924.11-1.166.264l4.004 10.604c.88 0 1.65-.066 2.354-.264l3.872-10.34c-.242-.154-.572-.264-1.1-.264-.418 0-.638.066-.792.132l-2.53 7.018c-.198.572-.44 1.452-.572 2.244h-.088zm7.172 1.188c.198.11.506.154.968.154.462 0 .748-.044.946-.154v-10.384c-.198-.11-.484-.154-.946-.154-.462 0-.77.044-.968.154v10.384zm.968-15.532c-.748 0-1.276.484-1.276 1.276 0 .858.44 1.298 1.276 1.298.77 0 1.276-.462 1.276-1.32 0-.814-.506-1.254-1.276-1.254zm8.47 15.686c.308-.396.462-1.166.418-1.804-.33.264-.814.44-1.342.44-.638 0-.99-.242-.99-1.21v-13.64c-.814 0-1.474.154-1.914.418v13.574c0 1.76.748 2.618 2.244 2.618.638 0 1.21-.154 1.584-.396zm6.38 0c.308-.396.462-1.166.418-1.804-.33.264-.814.44-1.342.44-.638 0-.99-.242-.99-1.21v-13.64c-.814 0-1.474.154-1.914.418v13.574c0 1.76.748 2.618 2.244 2.618.638 0 1.21-.154 1.584-.396zm10.978-4.752c.176-.528.264-1.122.264-1.782 0-2.662-1.342-4.554-4.246-4.554-3.256 0-5.236 2.442-5.236 5.852 0 3.432 1.958 5.632 5.5 5.632 1.452 0 2.596-.374 3.278-.792.308-.352.55-1.166.484-1.782-.858.506-1.98.836-3.322.836-2.376 0-3.872-1.012-3.96-3.41h7.238zm-7.216-1.606c.154-1.848 1.276-3.08 3.146-3.08 2.134 0 2.596 1.628 2.442 3.08h-5.588zm180.9-1.804c1.408-.396 2.376-1.584 2.376-3.366 0-2.882-2.574-4.004-6.138-4.004-1.672 0-2.97.132-4.268.374v15.048c1.386.132 3.146.176 4.928.176 3.542 0 6.292-1.254 6.292-4.422 0-2.2-1.32-3.256-3.19-3.718v-.088zm-6.028 1.056h3.014c2.574 0 4.158.902 4.158 2.728 0 1.848-1.628 2.684-4.4 2.684-.99 0-1.936-.022-2.772-.088v-5.324zm0-6.534c.682-.132 1.386-.154 2.244-.154 2.508 0 4.136.748 4.136 2.53 0 1.606-1.32 2.42-3.366 2.42h-3.014v-4.796zm17.82 12.738c.176.814.748 1.298 1.738 1.298.594 0 1.078-.176 1.452-.396.286-.396.418-1.078.374-1.65-.22.154-.616.308-1.034.308-.44 0-.77-.176-.77-.814v-4.796c0-3.014-1.342-4.136-3.96-4.136-1.452 0-2.75.352-3.498.792-.308.506-.374 1.364-.22 1.914.924-.572 2.112-.968 3.366-.968 1.716 0 2.42.77 2.42 2.596v.572c-.638-.264-1.474-.352-2.2-.352-2.486 0-4.4 1.056-4.4 3.63 0 2.398 1.65 3.3 3.542 3.3 1.452 0 2.464-.462 3.102-1.298h.088zm-.132-1.584c-.572.836-1.628 1.144-2.574 1.144-1.188 0-2.112-.506-2.112-1.65 0-1.166.946-1.98 2.772-1.98.748 0 1.364.132 1.914.33v2.156zm5.016.176c-.088.55.022 1.518.352 2.002.814.484 2.046.704 3.168.704 2.31 0 4.136-.946 4.136-3.432 0-3.74-5.324-2.882-5.324-5.148 0-.77.528-1.254 1.804-1.254 1.078 0 2.156.352 3.014 1.034.088-.55-.066-1.474-.352-1.914-.814-.55-1.848-.77-2.86-.77-2.288 0-3.542 1.078-3.542 3.102 0 3.63 5.324 2.706 5.324 5.192 0 .946-.814 1.518-2.244 1.518-1.166 0-2.618-.396-3.476-1.034zm12.452-4.268v-9.636c-.814 0-1.474.154-1.914.418v15.642c.198.11.506.154.968.154.462 0 .748-.044.946-.154v-4.84h1.364c1.188 1.826 2.244 3.3 3.586 4.84.242.11.814.176 1.386.176.462 0 .946-.066 1.122-.176-1.804-1.936-3.014-3.608-4.378-5.588l3.85-4.752c-.22-.132-.748-.242-1.32-.242-.308 0-.66.044-.814.11l-3.234 4.048h-1.562zm18.018 1.826c.176-.528.264-1.122.264-1.782 0-2.662-1.342-4.554-4.246-4.554-3.256 0-5.236 2.442-5.236 5.852 0 3.432 1.958 5.632 5.5 5.632 1.452 0 2.596-.374 3.278-.792.308-.352.55-1.166.484-1.782-.858.506-1.98.836-3.322.836-2.376 0-3.872-1.012-3.96-3.41h7.238zm-7.216-1.606c.154-1.848 1.276-3.08 3.146-3.08 2.134 0 2.596 1.628 2.442 3.08h-5.588zm12.21-2.53h-.088l-.154-1.936c-.616 0-1.188.11-1.562.308v10.362c.198.11.506.154.968.154.462 0 .748-.044.946-.154v-6.534c.55-1.628 1.496-2.486 2.838-2.486.528 0 1.012.132 1.364.33.066-.154.132-.418.132-.814 0-.55-.11-.924-.286-1.232-.242-.132-.66-.198-1.144-.198-1.694 0-2.552.88-3.014 2.2zm10.208 7.546c-.154-.792-.396-1.628-.616-2.244l-2.596-7.018c-.132-.066-.374-.132-.77-.132-.528 0-.924.11-1.166.264l4.004 10.604c.88 0 1.65-.066 2.354-.264l3.872-10.34c-.242-.154-.572-.264-1.1-.264-.418 0-.638.066-.792.132l-2.53 7.018c-.198.572-.44 1.452-.572 2.244h-.088zm7.172 1.188c.198.11.506.154.968.154.462 0 .748-.044.946-.154v-10.384c-.198-.11-.484-.154-.946-.154-.462 0-.77.044-.968.154v10.384zm.968-15.532c-.748 0-1.276.484-1.276 1.276 0 .858.44 1.298 1.276 1.298.77 0 1.276-.462 1.276-1.32 0-.814-.506-1.254-1.276-1.254zm8.47 15.686c.308-.396.462-1.166.418-1.804-.33.264-.814.44-1.342.44-.638 0-.99-.242-.99-1.21v-13.64c-.814 0-1.474.154-1.914.418v13.574c0 1.76.748 2.618 2.244 2.618.638 0 1.21-.154 1.584-.396zm6.38 0c.308-.396.462-1.166.418-1.804-.33.264-.814.44-1.342.44-.638 0-.99-.242-.99-1.21v-13.64c-.814 0-1.474.154-1.914.418v13.574c0 1.76.748 2.618 2.244 2.618.638 0 1.21-.154 1.584-.396zm10.978-4.752c.176-.528.264-1.122.264-1.782 0-2.662-1.342-4.554-4.246-4.554-3.256 0-5.236 2.442-5.236 5.852 0 3.432 1.958 5.632 5.5 5.632 1.452 0 2.596-.374 3.278-.792.308-.352.55-1.166.484-1.782-.858.506-1.98.836-3.322.836-2.376 0-3.872-1.012-3.96-3.41h7.238zm-7.216-1.606c.154-1.848 1.276-3.08 3.146-3.08 2.134 0 2.596 1.628 2.442 3.08h-5.588zm-66.825 36.226c.176.11.462.154.99.154.484 0 .792-.044.99-.154l1.562-15.114c-.176-.11-.462-.154-.88-.154-.44 0-.748.044-.924.154l-1.73 15.114zm5.808-10.516c-.19.374-.35 1.1-.35 1.65h1.48l-.75 5.764c-.044.33-.09.814-.09 1.144 0 1.562.68 2.486 2.575 2.486.925 0 1.607-.22 2.223-.66.308-.418.506-1.188.418-1.826-.615.528-1.275.748-1.957.748-1.277 0-1.475-.726-1.32-1.98l.66-5.676h2.99c.11-.198.197-.528.197-.968 0-.374-.066-.572-.132-.682h-2.86l.353-2.97c-.748 0-1.298.154-1.76.462l-.33 2.508h-1.342zm16.66.572c-.88-.638-1.89-1.012-3.32-1.012-1.893 0-3.52.66-4.643 2.178-.967 1.32-1.45 3.08-1.45 4.95 0 3.344 1.517 4.356 3.387 4.356 1.65 0 2.75-.814 3.32-1.804h.09c-.023 1.32.68 1.804 1.737 1.804.616 0 1.01-.11 1.34-.352.287-.308.485-1.1.397-1.65-.264.154-.55.286-.946.286-.572 0-.902-.132-.77-1.232l.858-7.524zm-2.62 7.106c-.64.902-1.43 1.606-2.75 1.606-1.54 0-2.18-.902-2.18-2.86 0-1.298.29-2.882 1.08-3.916.617-.814 1.607-1.386 3.06-1.386.637 0 1.165.11 1.56.374l-.77 6.182zm9-13.222c-.75 0-1.3.11-1.716.352l-1.715 13.354c-.023.242-.067.682-.067.924 0 1.408.77 1.958 2 1.958.638 0 1.144-.154 1.54-.418.286-.308.484-1.1.396-1.65-.31.198-.66.352-1.19.352-.593 0-.945-.176-.813-1.232l1.562-13.64zm5.17 5.632c-.154-.11-.44-.154-.86-.154-.44 0-.682.044-.88.154l-1.034 8.074c-.044.308-.066.616-.066.88 0 1.188.416 2.002 1.912 2.002.62 0 1.015-.132 1.345-.352.286-.308.484-1.1.396-1.65-.263.154-.55.286-.945.286-.572 0-.902-.132-.77-1.232l.902-8.008zm-.374-5.038c-.77 0-1.253.484-1.253 1.276s.46 1.188 1.12 1.188c.75 0 1.277-.506 1.277-1.276 0-.814-.485-1.188-1.145-1.188zm10.055 15.356c.374-.418.594-1.21.528-1.782-.748.374-1.584.66-2.64.66-2.024 0-3.168-1.034-3.168-3.498 0-1.1.22-2.046.724-2.882.64-1.034 1.695-1.672 3.235-1.672.964 0 1.65.242 2.372.726.133-.594 0-1.386-.285-1.804-.575-.396-1.32-.594-2.335-.594-2.178 0-3.674.946-4.576 2.398-.703 1.166-1.01 2.618-1.01 4.092 0 3.256 1.54 4.994 4.443 4.994 1.142 0 2.022-.264 2.704-.638z" fill-rule="evenodd"/></svg>